<svg width="1440" height="807" viewBox="0 0 1440 807" fill="none" xmlns="http://www.w3.org/2000/svg">
<g clip-path="url(#clip0_192_585)">
<rect width="1440" height="807" fill="#FAF9EB"/>
<g opacity="0.259672">
<rect x="463.188" y="205.138" width="23.8444" height="29.8056" transform="rotate(-9.63411 463.188 205.138)" fill="#2B4F2E"/>
</g>
<path d="M605.574 464.788C606.349 468.276 606.349 471.861 605.574 475.542C594.529 475.155 584.84 474.961 576.507 474.961C568.175 474.961 560.521 474.961 553.545 474.961C546.957 474.961 539.303 474.961 530.583 474.961C522.057 474.961 512.271 475.155 501.226 475.542C500.451 471.861 500.451 468.276 501.226 464.788H529.42C530.389 456.843 531.067 448.608 531.455 440.082C532.036 431.362 532.327 422.642 532.327 413.922V316.55L473.904 399.098H614.584C614.197 402.78 613.131 407.431 611.387 413.05C609.643 418.669 607.802 422.739 605.864 425.258H451.523C450.941 422.545 450.554 419.832 450.36 417.119C450.166 414.213 450.069 411.403 450.069 408.69C453.751 404.621 457.045 400.648 459.952 396.773C463.052 392.704 466.056 388.634 468.962 384.565L529.711 299.11C534.943 291.747 539.206 285.449 542.5 280.217C545.988 274.985 548.895 270.141 551.22 265.684C553.158 265.297 555.774 265.103 559.068 265.103C562.556 264.909 565.947 264.909 569.241 265.103C572.729 265.103 575.442 265.297 577.379 265.684C576.604 271.885 575.926 278.764 575.345 286.321C574.957 293.685 574.667 300.757 574.473 307.539C574.473 314.128 574.473 319.554 574.473 323.817V413.922C574.473 422.642 574.667 431.362 575.054 440.082C575.635 448.608 576.411 456.843 577.379 464.788H605.574ZM797.27 373.229C797.27 395.32 794.267 414.31 788.26 430.199C782.253 446.089 773.339 458.296 761.519 466.823C749.698 475.155 734.972 479.321 717.338 479.321C699.705 479.321 684.978 475.155 673.157 466.823C661.337 458.296 652.423 446.089 646.416 430.199C640.409 414.31 637.406 395.32 637.406 373.229C637.406 350.945 640.409 331.955 646.416 316.259C652.423 300.37 661.337 288.259 673.157 279.927C684.978 271.4 699.705 267.137 717.338 267.137C734.972 267.137 749.698 271.4 761.519 279.927C773.339 288.259 782.253 300.37 788.26 316.259C794.267 331.955 797.27 350.945 797.27 373.229ZM749.311 373.229C749.311 339.512 746.792 315.387 741.754 300.854C736.716 286.127 728.577 278.764 717.338 278.764C706.099 278.764 697.961 286.127 692.922 300.854C687.884 315.387 685.365 339.512 685.365 373.229C685.365 406.946 687.884 431.168 692.922 445.895C697.961 460.428 706.099 467.695 717.338 467.695C728.577 467.695 736.716 460.428 741.754 445.895C746.792 431.168 749.311 406.946 749.311 373.229ZM972.876 464.788C973.651 468.276 973.651 471.861 972.876 475.542C961.831 475.155 952.142 474.961 943.81 474.961C935.477 474.961 927.823 474.961 920.847 474.961C914.259 474.961 906.605 474.961 897.885 474.961C889.359 474.961 879.573 475.155 868.528 475.542C867.753 471.861 867.753 468.276 868.528 464.788H896.722C897.691 456.843 898.369 448.608 898.757 440.082C899.338 431.362 899.629 422.642 899.629 413.922V316.55L841.206 399.098H981.886C981.499 402.78 980.433 407.431 978.689 413.05C976.945 418.669 975.104 422.739 973.166 425.258H818.825C818.243 422.545 817.856 419.832 817.662 417.119C817.468 414.213 817.371 411.403 817.371 408.69C821.053 404.621 824.347 400.648 827.254 396.773C830.354 392.704 833.358 388.634 836.264 384.565L897.013 299.11C902.245 291.747 906.508 285.449 909.802 280.217C913.29 274.985 916.197 270.141 918.522 265.684C920.46 265.297 923.076 265.103 926.37 265.103C929.858 264.909 933.249 264.909 936.543 265.103C940.031 265.103 942.744 265.297 944.682 265.684C943.906 271.885 943.228 278.764 942.647 286.321C942.259 293.685 941.969 300.757 941.775 307.539C941.775 314.128 941.775 319.554 941.775 323.817V413.922C941.775 422.642 941.969 431.362 942.356 440.082C942.938 448.608 943.713 456.843 944.682 464.788H972.876Z" fill="url(#paint0_linear_192_585)"/>
<path d="M395.71 553.903V529.207H400.966V549.799H411.298L411.91 553.903H395.71ZM419.616 554.263C418.632 554.263 417.684 554.107 416.772 553.795C415.884 553.459 415.152 552.919 414.576 552.175C414 551.407 413.712 550.375 413.712 549.079C413.712 547.759 414 546.691 414.576 545.875C415.176 545.059 416.004 544.435 417.06 544.003C418.14 543.547 419.424 543.235 420.912 543.067C422.424 542.899 424.116 542.815 425.988 542.815V541.195C425.988 540.139 425.7 539.395 425.124 538.963C424.548 538.507 423.708 538.279 422.604 538.279C421.668 538.279 420.84 538.495 420.12 538.927C419.424 539.335 419.076 539.971 419.076 540.835V541.123H414.36C414.336 541.051 414.324 540.955 414.324 540.835C414.324 540.691 414.324 540.571 414.324 540.475C414.324 539.419 414.66 538.495 415.332 537.703C416.004 536.887 416.94 536.263 418.14 535.831C419.34 535.375 420.732 535.147 422.316 535.147H423.072C425.664 535.147 427.596 535.663 428.868 536.695C430.14 537.703 430.776 539.071 430.776 540.799V549.763C430.776 550.219 430.884 550.543 431.1 550.735C431.34 550.927 431.592 551.023 431.856 551.023C432.072 551.023 432.312 550.987 432.576 550.915C432.84 550.819 433.092 550.711 433.332 550.591V553.471C433.02 553.711 432.6 553.903 432.072 554.047C431.568 554.191 430.956 554.263 430.236 554.263C429.372 554.263 428.652 554.131 428.076 553.867C427.5 553.579 427.056 553.195 426.744 552.715C426.456 552.235 426.276 551.683 426.204 551.059C425.532 552.019 424.644 552.799 423.54 553.399C422.436 553.975 421.128 554.263 419.616 554.263ZM421.92 551.023C422.592 551.023 423.228 550.867 423.828 550.555C424.452 550.243 424.968 549.787 425.376 549.187C425.784 548.563 425.988 547.795 425.988 546.883V545.407C424.452 545.407 423.144 545.503 422.064 545.695C421.008 545.887 420.204 546.211 419.652 546.667C419.1 547.099 418.824 547.735 418.824 548.575C418.824 549.463 419.088 550.099 419.616 550.483C420.168 550.843 420.936 551.023 421.92 551.023ZM444.357 560.419V535.507H448.209L448.749 537.883C449.301 537.091 450.033 536.443 450.945 535.939C451.881 535.411 452.973 535.147 454.221 535.147C455.637 535.147 456.909 535.459 458.037 536.083C459.189 536.683 460.089 537.655 460.737 538.999C461.409 540.343 461.745 542.107 461.745 544.291V545.047C461.745 547.063 461.421 548.767 460.773 550.159C460.125 551.527 459.249 552.559 458.145 553.255C457.041 553.927 455.829 554.263 454.509 554.263C453.237 554.263 452.169 554.023 451.305 553.543C450.441 553.063 449.781 552.451 449.325 551.707V560.419H444.357ZM452.961 550.987C453.657 550.987 454.269 550.807 454.797 550.447C455.349 550.087 455.781 549.571 456.093 548.899C456.405 548.227 456.561 547.399 456.561 546.415V543.211C456.561 542.107 456.405 541.207 456.093 540.511C455.781 539.791 455.349 539.263 454.797 538.927C454.269 538.567 453.657 538.387 452.961 538.387C452.313 538.387 451.701 538.555 451.125 538.891C450.573 539.227 450.129 539.743 449.793 540.439C449.457 541.135 449.289 542.047 449.289 543.175V546.415C449.289 547.399 449.445 548.239 449.757 548.935C450.093 549.607 450.537 550.123 451.089 550.483C451.665 550.819 452.289 550.987 452.961 550.987ZM470.663 554.263C469.679 554.263 468.731 554.107 467.819 553.795C466.931 553.459 466.199 552.919 465.623 552.175C465.047 551.407 464.759 550.375 464.759 549.079C464.759 547.759 465.047 546.691 465.623 545.875C466.223 545.059 467.051 544.435 468.107 544.003C469.187 543.547 470.471 543.235 471.959 543.067C473.471 542.899 475.163 542.815 477.035 542.815V541.195C477.035 540.139 476.747 539.395 476.171 538.963C475.595 538.507 474.755 538.279 473.651 538.279C472.715 538.279 471.887 538.495 471.167 538.927C470.471 539.335 470.123 539.971 470.123 540.835V541.123H465.407C465.383 541.051 465.371 540.955 465.371 540.835C465.371 540.691 465.371 540.571 465.371 540.475C465.371 539.419 465.707 538.495 466.379 537.703C467.051 536.887 467.987 536.263 469.187 535.831C470.387 535.375 471.779 535.147 473.363 535.147H474.119C476.711 535.147 478.643 535.663 479.915 536.695C481.187 537.703 481.823 539.071 481.823 540.799V549.763C481.823 550.219 481.931 550.543 482.147 550.735C482.387 550.927 482.639 551.023 482.903 551.023C483.119 551.023 483.359 550.987 483.623 550.915C483.887 550.819 484.139 550.711 484.379 550.591V553.471C484.067 553.711 483.647 553.903 483.119 554.047C482.615 554.191 482.003 554.263 481.283 554.263C480.419 554.263 479.699 554.131 479.123 553.867C478.547 553.579 478.103 553.195 477.791 552.715C477.503 552.235 477.323 551.683 477.251 551.059C476.579 552.019 475.691 552.799 474.587 553.399C473.483 553.975 472.175 554.263 470.663 554.263ZM472.967 551.023C473.639 551.023 474.275 550.867 474.875 550.555C475.499 550.243 476.015 549.787 476.423 549.187C476.831 548.563 477.035 547.795 477.035 546.883V545.407C475.499 545.407 474.191 545.503 473.111 545.695C472.055 545.887 471.251 546.211 470.699 546.667C470.147 547.099 469.871 547.735 469.871 548.575C469.871 549.463 470.135 550.099 470.663 550.483C471.215 550.843 471.983 551.023 472.967 551.023ZM490.801 560.671C489.961 560.671 489.193 560.467 488.497 560.059C487.825 559.675 487.273 559.147 486.841 558.475C486.433 557.803 486.229 557.071 486.229 556.279C486.229 555.391 486.469 554.575 486.949 553.831C487.429 553.063 488.089 552.487 488.929 552.103C488.401 551.767 487.981 551.335 487.669 550.807C487.381 550.255 487.237 549.679 487.237 549.079C487.237 548.191 487.525 547.435 488.101 546.811C488.677 546.163 489.409 545.695 490.297 545.407C489.553 544.951 488.941 544.387 488.461 543.715C487.981 543.043 487.741 542.215 487.741 541.231C487.741 540.199 488.017 539.215 488.569 538.279C489.145 537.343 489.997 536.587 491.125 536.011C492.277 535.435 493.729 535.147 495.481 535.147C496.201 535.147 496.873 535.183 497.497 535.255C498.121 535.327 498.673 535.447 499.153 535.615C500.089 535.111 500.773 534.559 501.205 533.959C501.661 533.359 501.913 532.771 501.961 532.195H505.813C505.813 533.011 505.657 533.743 505.345 534.391C505.033 535.039 504.589 535.579 504.013 536.011C503.461 536.419 502.789 536.719 501.997 536.911L501.961 537.019C502.537 537.499 502.993 538.063 503.329 538.711C503.689 539.359 503.869 540.067 503.869 540.835C503.869 541.891 503.569 542.863 502.969 543.751C502.393 544.639 501.565 545.359 500.485 545.911C499.429 546.439 498.181 546.703 496.741 546.703H494.041C493.297 546.703 492.721 546.859 492.313 547.171C491.905 547.459 491.701 547.855 491.701 548.359C491.701 548.815 491.881 549.199 492.241 549.511C492.625 549.823 493.225 549.979 494.041 549.979H500.413C502.093 549.979 503.413 550.471 504.373 551.455C505.333 552.439 505.813 553.651 505.813 555.091C505.813 556.099 505.561 557.023 505.057 557.863C504.553 558.727 503.845 559.411 502.933 559.915C502.045 560.419 501.013 560.671 499.837 560.671H490.801ZM492.673 557.611H498.901C499.549 557.611 500.101 557.395 500.557 556.963C501.037 556.555 501.277 556.051 501.277 555.451C501.277 554.899 501.073 554.431 500.665 554.047C500.281 553.663 499.789 553.471 499.189 553.471H492.673C492.049 553.471 491.521 553.675 491.089 554.083C490.657 554.491 490.441 554.971 490.441 555.523C490.441 556.075 490.657 556.555 491.089 556.963C491.521 557.395 492.049 557.611 492.673 557.611ZM495.841 544.003C496.897 544.003 497.725 543.703 498.325 543.103C498.949 542.503 499.261 541.783 499.261 540.943C499.261 540.103 498.949 539.383 498.325 538.783C497.725 538.159 496.897 537.847 495.841 537.847C494.785 537.847 493.945 538.159 493.321 538.783C492.697 539.383 492.385 540.103 492.385 540.943C492.385 541.783 492.697 542.503 493.321 543.103C493.945 543.703 494.785 544.003 495.841 544.003ZM516.651 554.263C514.923 554.263 513.387 553.915 512.043 553.219C510.723 552.499 509.691 551.467 508.947 550.123C508.203 548.755 507.831 547.099 507.831 545.155V544.255C507.831 542.311 508.215 540.667 508.983 539.323C509.775 537.955 510.843 536.923 512.187 536.227C513.555 535.507 515.103 535.147 516.831 535.147H517.407C519.039 535.147 520.455 535.483 521.655 536.155C522.879 536.803 523.815 537.727 524.463 538.927C525.135 540.103 525.471 541.483 525.471 543.067V545.335H513.015C513.015 546.487 513.159 547.495 513.447 548.359C513.735 549.223 514.167 549.883 514.743 550.339C515.319 550.795 516.075 551.023 517.011 551.023C517.779 551.023 518.451 550.879 519.027 550.591C519.603 550.279 520.059 549.823 520.395 549.223C520.731 548.623 520.899 547.891 520.899 547.027H525.471C525.471 548.443 525.111 549.703 524.391 550.807C523.671 551.887 522.675 552.739 521.403 553.363C520.155 553.963 518.703 554.263 517.047 554.263H516.651ZM513.051 542.815H520.647C520.647 541.303 520.311 540.187 519.639 539.467C518.991 538.723 518.091 538.351 516.939 538.351C515.859 538.351 514.947 538.735 514.203 539.503C513.483 540.247 513.099 541.351 513.051 542.815ZM548.975 560.383V551.743C548.495 552.367 547.823 552.943 546.959 553.471C546.095 553.999 545.027 554.263 543.755 554.263C542.363 554.263 541.115 553.927 540.011 553.255C538.931 552.559 538.079 551.539 537.455 550.195C536.831 548.827 536.519 547.123 536.519 545.083V544.687C536.519 542.503 536.867 540.715 537.563 539.323C538.259 537.931 539.195 536.887 540.371 536.191C541.547 535.495 542.843 535.147 544.259 535.147C545.603 535.147 546.767 535.399 547.751 535.903C548.735 536.383 549.563 537.151 550.235 538.207L552.107 535.507H553.907V560.383H548.975ZM545.303 550.987C545.975 550.987 546.587 550.819 547.139 550.483C547.715 550.123 548.159 549.607 548.471 548.935C548.807 548.239 548.975 547.411 548.975 546.451V543.211C548.975 542.083 548.807 541.171 548.471 540.475C548.159 539.755 547.715 539.239 547.139 538.927C546.587 538.591 545.975 538.423 545.303 538.423C544.631 538.423 544.019 538.603 543.467 538.963C542.939 539.299 542.507 539.815 542.171 540.511C541.859 541.207 541.703 542.107 541.703 543.211V546.451C541.703 547.411 541.859 548.239 542.171 548.935C542.507 549.607 542.939 550.123 543.467 550.483C544.019 550.819 544.631 550.987 545.303 550.987ZM564.732 554.263C562.836 554.263 561.336 553.747 560.232 552.715C559.152 551.659 558.612 550.123 558.612 548.107V535.507H563.544V547.027C563.544 548.275 563.796 549.187 564.3 549.763C564.828 550.339 565.596 550.627 566.604 550.627C567.276 550.627 567.888 550.459 568.44 550.123C568.992 549.787 569.436 549.343 569.772 548.791C570.132 548.239 570.312 547.627 570.312 546.955V535.507H575.208V549.763C575.208 550.219 575.316 550.543 575.532 550.735C575.772 550.927 576.024 551.023 576.288 551.023C576.528 551.023 576.768 550.987 577.008 550.915C577.272 550.819 577.524 550.711 577.764 550.591V553.471C577.452 553.711 577.032 553.903 576.504 554.047C576 554.191 575.388 554.263 574.668 554.263C573.828 554.263 573.12 554.131 572.544 553.867C571.992 553.603 571.572 553.243 571.284 552.787C570.996 552.307 570.78 551.803 570.636 551.275C570.036 552.211 569.208 552.943 568.152 553.471C567.096 553.999 565.956 554.263 564.732 554.263ZM589.249 554.263C587.521 554.263 585.985 553.915 584.641 553.219C583.321 552.499 582.289 551.467 581.545 550.123C580.801 548.755 580.429 547.099 580.429 545.155V544.255C580.429 542.311 580.813 540.667 581.581 539.323C582.373 537.955 583.441 536.923 584.785 536.227C586.153 535.507 587.701 535.147 589.429 535.147H590.005C591.637 535.147 593.053 535.483 594.253 536.155C595.477 536.803 596.413 537.727 597.061 538.927C597.733 540.103 598.069 541.483 598.069 543.067V545.335H585.613C585.613 546.487 585.757 547.495 586.045 548.359C586.333 549.223 586.765 549.883 587.341 550.339C587.917 550.795 588.673 551.023 589.609 551.023C590.377 551.023 591.049 550.879 591.625 550.591C592.201 550.279 592.657 549.823 592.993 549.223C593.329 548.623 593.497 547.891 593.497 547.027H598.069C598.069 548.443 597.709 549.703 596.989 550.807C596.269 551.887 595.273 552.739 594.001 553.363C592.753 553.963 591.301 554.263 589.645 554.263H589.249ZM585.649 542.815H593.245C593.245 541.303 592.909 540.187 592.237 539.467C591.589 538.723 590.689 538.351 589.537 538.351C588.457 538.351 587.545 538.735 586.801 539.503C586.081 540.247 585.697 541.351 585.649 542.815ZM614.409 553.903L607.857 535.507H613.113L617.289 548.215H617.505L621.717 535.507H626.505L619.881 553.903H614.409ZM637.307 554.263C635.627 554.263 634.115 553.891 632.771 553.147C631.451 552.379 630.407 551.299 629.639 549.907C628.895 548.515 628.523 546.883 628.523 545.011V544.363C628.523 542.467 628.895 540.835 629.639 539.467C630.407 538.099 631.451 537.043 632.771 536.299C634.091 535.531 635.591 535.147 637.271 535.147H637.991C639.695 535.147 641.207 535.531 642.527 536.299C643.847 537.043 644.879 538.099 645.623 539.467C646.391 540.835 646.775 542.467 646.775 544.363V545.011C646.775 546.907 646.391 548.551 645.623 549.943C644.879 551.311 643.847 552.379 642.527 553.147C641.207 553.891 639.707 554.263 638.027 554.263H637.307ZM637.631 551.023C638.375 551.023 639.035 550.855 639.611 550.519C640.211 550.159 640.679 549.631 641.015 548.935C641.375 548.239 641.555 547.411 641.555 546.451V542.923C641.555 541.939 641.375 541.111 641.015 540.439C640.679 539.767 640.211 539.251 639.611 538.891C639.035 538.531 638.375 538.351 637.631 538.351C636.911 538.351 636.251 538.531 635.651 538.891C635.051 539.251 634.571 539.767 634.211 540.439C633.875 541.111 633.707 541.939 633.707 542.923V546.451C633.707 547.411 633.875 548.239 634.211 548.935C634.571 549.631 635.051 550.159 635.651 550.519C636.251 550.855 636.911 551.023 637.631 551.023ZM656.771 554.263C654.875 554.263 653.375 553.747 652.271 552.715C651.191 551.659 650.651 550.123 650.651 548.107V535.507H655.583V547.027C655.583 548.275 655.835 549.187 656.339 549.763C656.867 550.339 657.635 550.627 658.643 550.627C659.315 550.627 659.927 550.459 660.479 550.123C661.031 549.787 661.475 549.343 661.811 548.791C662.171 548.239 662.351 547.627 662.351 546.955V535.507H667.247V549.763C667.247 550.219 667.355 550.543 667.571 550.735C667.811 550.927 668.063 551.023 668.327 551.023C668.567 551.023 668.807 550.987 669.047 550.915C669.311 550.819 669.563 550.711 669.803 550.591V553.471C669.491 553.711 669.071 553.903 668.543 554.047C668.039 554.191 667.427 554.263 666.707 554.263C665.867 554.263 665.159 554.131 664.583 553.867C664.031 553.603 663.611 553.243 663.323 552.787C663.035 552.307 662.819 551.803 662.675 551.275C662.075 552.211 661.247 552.943 660.191 553.471C659.135 553.999 657.995 554.263 656.771 554.263ZM679.884 554.263C678.732 554.263 677.688 554.119 676.752 553.831C675.816 553.543 675 553.159 674.304 552.679C673.632 552.175 673.116 551.599 672.756 550.951C672.396 550.279 672.216 549.559 672.216 548.791C672.216 548.647 672.216 548.527 672.216 548.431C672.216 548.335 672.228 548.203 672.252 548.035H676.428C676.404 548.107 676.392 548.179 676.392 548.251C676.392 548.299 676.392 548.347 676.392 548.395C676.392 548.995 676.596 549.499 677.004 549.907C677.412 550.291 677.94 550.579 678.588 550.771C679.236 550.939 679.932 551.023 680.676 551.023C681.276 551.023 681.876 550.951 682.476 550.807C683.1 550.663 683.616 550.435 684.024 550.123C684.432 549.787 684.636 549.367 684.636 548.863C684.636 548.311 684.42 547.891 683.988 547.603C683.58 547.291 683.016 547.051 682.296 546.883C681.6 546.691 680.832 546.535 679.992 546.415C679.152 546.271 678.3 546.103 677.436 545.911C676.596 545.695 675.816 545.395 675.096 545.011C674.4 544.627 673.836 544.111 673.404 543.463C672.996 542.791 672.792 541.915 672.792 540.835C672.792 539.923 672.996 539.107 673.404 538.387C673.836 537.667 674.412 537.067 675.132 536.587C675.876 536.107 676.716 535.747 677.652 535.507C678.612 535.267 679.608 535.147 680.64 535.147H681.36C682.32 535.147 683.232 535.267 684.096 535.507C684.984 535.747 685.776 536.095 686.472 536.551C687.168 536.983 687.708 537.511 688.092 538.135C688.5 538.735 688.704 539.395 688.704 540.115C688.704 540.235 688.692 540.379 688.668 540.547C688.668 540.691 688.656 540.787 688.632 540.835H684.456V540.547C684.456 540.283 684.384 540.031 684.24 539.791C684.12 539.527 683.904 539.287 683.592 539.071C683.304 538.855 682.92 538.687 682.44 538.567C681.984 538.423 681.432 538.351 680.784 538.351C680.208 538.351 679.692 538.411 679.236 538.531C678.78 538.627 678.396 538.771 678.084 538.963C677.772 539.131 677.544 539.335 677.4 539.575C677.256 539.815 677.184 540.055 677.184 540.295C677.184 540.799 677.4 541.195 677.832 541.483C678.264 541.747 678.828 541.963 679.524 542.131C680.244 542.275 681.024 542.419 681.864 542.563C682.728 542.683 683.58 542.839 684.42 543.031C685.26 543.223 686.04 543.523 686.76 543.931C687.48 544.315 688.044 544.843 688.452 545.515C688.884 546.187 689.1 547.063 689.1 548.143C689.1 549.271 688.884 550.231 688.452 551.023C688.02 551.815 687.42 552.451 686.652 552.931C685.884 553.387 685.02 553.723 684.06 553.939C683.1 554.155 682.092 554.263 681.036 554.263H679.884ZM708.241 554.263C706.681 554.263 705.265 553.879 703.993 553.111C702.745 552.343 701.761 551.287 701.041 549.943C700.321 548.575 699.961 547.015 699.961 545.263V544.147C699.961 542.827 700.177 541.627 700.609 540.547C701.065 539.443 701.677 538.483 702.445 537.667C703.213 536.851 704.113 536.227 705.145 535.795C706.177 535.363 707.281 535.147 708.457 535.147H709.141C710.749 535.147 712.141 535.471 713.317 536.119C714.517 536.743 715.429 537.631 716.053 538.783C716.701 539.911 717.025 541.243 717.025 542.779H712.741C712.741 541.795 712.585 540.979 712.273 540.331C711.985 539.683 711.565 539.191 711.013 538.855C710.461 538.519 709.801 538.351 709.033 538.351C707.929 538.351 707.005 538.735 706.261 539.503C705.517 540.247 705.145 541.351 705.145 542.815V546.523C705.145 547.963 705.493 549.079 706.189 549.871C706.909 550.639 707.869 551.023 709.069 551.023C709.909 551.023 710.617 550.879 711.193 550.591C711.769 550.303 712.201 549.835 712.489 549.187C712.801 548.539 712.957 547.675 712.957 546.595H717.025C717.025 548.227 716.677 549.619 715.981 550.771C715.285 551.899 714.325 552.763 713.101 553.363C711.877 553.963 710.485 554.263 708.925 554.263H708.241ZM720.897 553.903V527.983H725.829V537.847C726.501 536.959 727.293 536.287 728.205 535.831C729.141 535.375 730.173 535.147 731.301 535.147C732.525 535.147 733.593 535.387 734.505 535.867C735.441 536.347 736.173 537.043 736.701 537.955C737.229 538.843 737.493 539.911 737.493 541.159V553.903H732.561V542.203C732.561 541.027 732.273 540.163 731.697 539.611C731.121 539.059 730.341 538.783 729.357 538.783C728.733 538.783 728.145 538.951 727.593 539.287C727.041 539.599 726.609 540.031 726.297 540.583C725.985 541.135 725.829 541.759 725.829 542.455V553.903H720.897ZM750.37 554.263C748.642 554.263 747.106 553.915 745.762 553.219C744.442 552.499 743.41 551.467 742.666 550.123C741.922 548.755 741.55 547.099 741.55 545.155V544.255C741.55 542.311 741.934 540.667 742.702 539.323C743.494 537.955 744.562 536.923 745.906 536.227C747.274 535.507 748.822 535.147 750.55 535.147H751.126C752.758 535.147 754.174 535.483 755.374 536.155C756.598 536.803 757.534 537.727 758.182 538.927C758.854 540.103 759.19 541.483 759.19 543.067V545.335H746.734C746.734 546.487 746.878 547.495 747.166 548.359C747.454 549.223 747.886 549.883 748.462 550.339C749.038 550.795 749.794 551.023 750.73 551.023C751.498 551.023 752.17 550.879 752.746 550.591C753.322 550.279 753.778 549.823 754.114 549.223C754.45 548.623 754.618 547.891 754.618 547.027H759.19C759.19 548.443 758.83 549.703 758.11 550.807C757.39 551.887 756.394 552.739 755.122 553.363C753.874 553.963 752.422 554.263 750.766 554.263H750.37ZM746.77 542.815H754.366C754.366 541.303 754.03 540.187 753.358 539.467C752.71 538.723 751.81 538.351 750.658 538.351C749.578 538.351 748.666 538.735 747.922 539.503C747.202 540.247 746.818 541.351 746.77 542.815ZM763.331 553.903V535.507H767.003L767.615 538.207C767.663 538.111 767.783 537.907 767.975 537.595C768.191 537.283 768.503 536.935 768.911 536.551C769.319 536.167 769.823 535.843 770.423 535.579C771.047 535.291 771.791 535.147 772.655 535.147C773.903 535.147 774.911 535.387 775.679 535.867C776.471 536.347 777.059 537.019 777.443 537.883C777.827 538.747 778.019 539.755 778.019 540.907C778.019 541.171 778.007 541.459 777.983 541.771C777.959 542.083 777.935 542.359 777.911 542.599H773.807V541.843C773.807 541.387 773.711 540.931 773.519 540.475C773.351 539.995 773.063 539.599 772.655 539.287C772.271 538.975 771.731 538.819 771.035 538.819C770.531 538.819 770.099 538.927 769.739 539.143C769.379 539.359 769.079 539.635 768.839 539.971C768.623 540.283 768.455 540.643 768.335 541.051C768.239 541.435 768.191 541.795 768.191 542.131V553.903H763.331ZM788.713 554.263C787.153 554.263 785.737 553.879 784.465 553.111C783.217 552.343 782.233 551.287 781.513 549.943C780.793 548.575 780.433 547.015 780.433 545.263V544.147C780.433 542.827 780.649 541.627 781.081 540.547C781.537 539.443 782.149 538.483 782.917 537.667C783.685 536.851 784.585 536.227 785.617 535.795C786.649 535.363 787.753 535.147 788.929 535.147H789.613C791.221 535.147 792.613 535.471 793.789 536.119C794.989 536.743 795.901 537.631 796.525 538.783C797.173 539.911 797.497 541.243 797.497 542.779H793.213C793.213 541.795 793.057 540.979 792.745 540.331C792.457 539.683 792.037 539.191 791.485 538.855C790.933 538.519 790.273 538.351 789.505 538.351C788.401 538.351 787.477 538.735 786.733 539.503C785.989 540.247 785.617 541.351 785.617 542.815V546.523C785.617 547.963 785.965 549.079 786.661 549.871C787.381 550.639 788.341 551.023 789.541 551.023C790.381 551.023 791.089 550.879 791.665 550.591C792.241 550.303 792.673 549.835 792.961 549.187C793.273 548.539 793.429 547.675 793.429 546.595H797.497C797.497 548.227 797.149 549.619 796.453 550.771C795.757 551.899 794.797 552.763 793.573 553.363C792.349 553.963 790.957 554.263 789.397 554.263H788.713ZM801.37 553.903V527.983H806.302V537.847C806.974 536.959 807.766 536.287 808.678 535.831C809.614 535.375 810.646 535.147 811.774 535.147C812.998 535.147 814.066 535.387 814.978 535.867C815.914 536.347 816.646 537.043 817.174 537.955C817.702 538.843 817.966 539.911 817.966 541.159V553.903H813.034V542.203C813.034 541.027 812.746 540.163 812.17 539.611C811.594 539.059 810.814 538.783 809.83 538.783C809.206 538.783 808.618 538.951 808.066 539.287C807.514 539.599 807.082 540.031 806.77 540.583C806.458 541.135 806.302 541.759 806.302 542.455V553.903H801.37ZM830.842 554.263C829.114 554.263 827.578 553.915 826.234 553.219C824.914 552.499 823.882 551.467 823.138 550.123C822.394 548.755 822.022 547.099 822.022 545.155V544.255C822.022 542.311 822.406 540.667 823.174 539.323C823.966 537.955 825.034 536.923 826.378 536.227C827.746 535.507 829.294 535.147 831.022 535.147H831.598C833.23 535.147 834.646 535.483 835.846 536.155C837.07 536.803 838.006 537.727 838.654 538.927C839.326 540.103 839.662 541.483 839.662 543.067V545.335H827.206C827.206 546.487 827.35 547.495 827.638 548.359C827.926 549.223 828.358 549.883 828.934 550.339C829.51 550.795 830.266 551.023 831.202 551.023C831.97 551.023 832.642 550.879 833.218 550.591C833.794 550.279 834.25 549.823 834.586 549.223C834.922 548.623 835.09 547.891 835.09 547.027H839.662C839.662 548.443 839.302 549.703 838.582 550.807C837.862 551.887 836.866 552.739 835.594 553.363C834.346 553.963 832.894 554.263 831.238 554.263H830.842ZM827.242 542.815H834.838C834.838 541.303 834.502 540.187 833.83 539.467C833.182 538.723 832.282 538.351 831.13 538.351C830.05 538.351 829.138 538.735 828.394 539.503C827.674 540.247 827.29 541.351 827.242 542.815ZM842.579 553.903V552.211L850.715 538.819H843.047V535.507H857.195V537.127L849.059 550.591H857.483V553.903H842.579ZM868.94 553.903V535.507H872.576L873.152 538.207C873.872 537.175 874.736 536.407 875.744 535.903C876.776 535.399 877.94 535.147 879.236 535.147C880.484 535.147 881.576 535.387 882.512 535.867C883.472 536.347 884.204 537.031 884.708 537.919C885.236 538.807 885.5 539.887 885.5 541.159V553.903H880.604V542.203C880.604 541.027 880.316 540.163 879.74 539.611C879.164 539.059 878.384 538.783 877.4 538.783C876.776 538.783 876.188 538.951 875.636 539.287C875.084 539.599 874.652 540.031 874.34 540.583C874.028 541.135 873.872 541.759 873.872 542.455V553.903H868.94ZM889.885 539.611V539.035C890.629 538.219 891.181 537.391 891.541 536.551C891.925 535.687 892.117 534.799 892.117 533.887H889.957V528.523H894.817V533.095C894.817 534.319 894.613 535.495 894.205 536.623C893.821 537.727 893.221 538.723 892.405 539.611H889.885ZM906.885 554.263C905.157 554.263 903.621 553.915 902.277 553.219C900.957 552.499 899.925 551.467 899.181 550.123C898.437 548.755 898.065 547.099 898.065 545.155V544.255C898.065 542.311 898.449 540.667 899.217 539.323C900.009 537.955 901.077 536.923 902.421 536.227C903.789 535.507 905.337 535.147 907.065 535.147H907.641C909.273 535.147 910.689 535.483 911.889 536.155C913.113 536.803 914.049 537.727 914.697 538.927C915.369 540.103 915.705 541.483 915.705 543.067V545.335H903.249C903.249 546.487 903.393 547.495 903.681 548.359C903.969 549.223 904.401 549.883 904.977 550.339C905.553 550.795 906.309 551.023 907.245 551.023C908.013 551.023 908.685 550.879 909.261 550.591C909.837 550.279 910.293 549.823 910.629 549.223C910.965 548.623 911.133 547.891 911.133 547.027H915.705C915.705 548.443 915.345 549.703 914.625 550.807C913.905 551.887 912.909 552.739 911.637 553.363C910.389 553.963 908.937 554.263 907.281 554.263H906.885ZM903.285 542.815H910.881C910.881 541.303 910.545 540.187 909.873 539.467C909.225 538.723 908.325 538.351 907.173 538.351C906.093 538.351 905.181 538.735 904.437 539.503C903.717 540.247 903.333 541.351 903.285 542.815ZM917.726 553.903L924.134 544.291L918.23 535.507H923.954L927.482 541.087H927.554L931.118 535.507H936.446L930.47 544.399L936.842 553.903H931.118L927.158 547.603H927.086L923.054 553.903H917.726ZM939.925 553.903V535.507H944.857V553.903H939.925ZM939.853 531.799V527.983H944.929V531.799H939.853ZM956.528 554.263C955.376 554.263 954.332 554.119 953.396 553.831C952.46 553.543 951.644 553.159 950.948 552.679C950.276 552.175 949.76 551.599 949.4 550.951C949.04 550.279 948.86 549.559 948.86 548.791C948.86 548.647 948.86 548.527 948.86 548.431C948.86 548.335 948.872 548.203 948.896 548.035H953.072C953.048 548.107 953.036 548.179 953.036 548.251C953.036 548.299 953.036 548.347 953.036 548.395C953.036 548.995 953.24 549.499 953.648 549.907C954.056 550.291 954.584 550.579 955.232 550.771C955.88 550.939 956.576 551.023 957.32 551.023C957.92 551.023 958.52 550.951 959.12 550.807C959.744 550.663 960.26 550.435 960.668 550.123C961.076 549.787 961.28 549.367 961.28 548.863C961.28 548.311 961.064 547.891 960.632 547.603C960.224 547.291 959.66 547.051 958.94 546.883C958.244 546.691 957.476 546.535 956.636 546.415C955.796 546.271 954.944 546.103 954.08 545.911C953.24 545.695 952.46 545.395 951.74 545.011C951.044 544.627 950.48 544.111 950.048 543.463C949.64 542.791 949.436 541.915 949.436 540.835C949.436 539.923 949.64 539.107 950.048 538.387C950.48 537.667 951.056 537.067 951.776 536.587C952.52 536.107 953.36 535.747 954.296 535.507C955.256 535.267 956.252 535.147 957.284 535.147H958.004C958.964 535.147 959.876 535.267 960.74 535.507C961.628 535.747 962.42 536.095 963.116 536.551C963.812 536.983 964.352 537.511 964.736 538.135C965.144 538.735 965.348 539.395 965.348 540.115C965.348 540.235 965.336 540.379 965.312 540.547C965.312 540.691 965.3 540.787 965.276 540.835H961.1V540.547C961.1 540.283 961.028 540.031 960.884 539.791C960.764 539.527 960.548 539.287 960.236 539.071C959.948 538.855 959.564 538.687 959.084 538.567C958.628 538.423 958.076 538.351 957.428 538.351C956.852 538.351 956.336 538.411 955.88 538.531C955.424 538.627 955.04 538.771 954.728 538.963C954.416 539.131 954.188 539.335 954.044 539.575C953.9 539.815 953.828 540.055 953.828 540.295C953.828 540.799 954.044 541.195 954.476 541.483C954.908 541.747 955.472 541.963 956.168 542.131C956.888 542.275 957.668 542.419 958.508 542.563C959.372 542.683 960.224 542.839 961.064 543.031C961.904 543.223 962.684 543.523 963.404 543.931C964.124 544.315 964.688 544.843 965.096 545.515C965.528 546.187 965.744 547.063 965.744 548.143C965.744 549.271 965.528 550.231 965.096 551.023C964.664 551.815 964.064 552.451 963.296 552.931C962.528 553.387 961.664 553.723 960.704 553.939C959.744 554.155 958.736 554.263 957.68 554.263H956.528ZM975.926 554.263C974.894 554.263 973.97 554.119 973.154 553.831C972.338 553.543 971.702 553.063 971.246 552.391C970.79 551.695 970.562 550.783 970.562 549.655V539.179H968.546V535.507H970.706L972.434 529.639H975.458V535.507H979.778V539.179H975.458V548.575C975.458 549.631 975.674 550.303 976.106 550.591C976.538 550.879 977.006 551.023 977.51 551.023C977.774 551.023 978.134 550.975 978.59 550.879C979.07 550.759 979.454 550.639 979.742 550.519V553.543C979.43 553.711 979.046 553.843 978.59 553.939C978.134 554.059 977.666 554.143 977.186 554.191C976.73 554.239 976.31 554.263 975.926 554.263ZM991.647 554.263C989.919 554.263 988.383 553.915 987.039 553.219C985.719 552.499 984.687 551.467 983.943 550.123C983.199 548.755 982.827 547.099 982.827 545.155V544.255C982.827 542.311 983.211 540.667 983.979 539.323C984.771 537.955 985.839 536.923 987.183 536.227C988.551 535.507 990.099 535.147 991.827 535.147H992.403C994.035 535.147 995.451 535.483 996.651 536.155C997.875 536.803 998.811 537.727 999.459 538.927C1000.13 540.103 1000.47 541.483 1000.47 543.067V545.335H988.011C988.011 546.487 988.155 547.495 988.443 548.359C988.731 549.223 989.163 549.883 989.739 550.339C990.315 550.795 991.071 551.023 992.007 551.023C992.775 551.023 993.447 550.879 994.023 550.591C994.599 550.279 995.055 549.823 995.391 549.223C995.727 548.623 995.895 547.891 995.895 547.027H1000.47C1000.47 548.443 1000.11 549.703 999.387 550.807C998.667 551.887 997.671 552.739 996.399 553.363C995.151 553.963 993.699 554.263 992.043 554.263H991.647ZM988.047 542.815H995.643C995.643 541.303 995.307 540.187 994.635 539.467C993.987 538.723 993.087 538.351 991.935 538.351C990.855 538.351 989.943 538.735 989.199 539.503C988.479 540.247 988.095 541.351 988.047 542.815ZM1012.27 560.419V535.507H1016.12L1016.66 537.883C1017.22 537.091 1017.95 536.443 1018.86 535.939C1019.8 535.411 1020.89 535.147 1022.14 535.147C1023.55 535.147 1024.82 535.459 1025.95 536.083C1027.1 536.683 1028 537.655 1028.65 538.999C1029.32 540.343 1029.66 542.107 1029.66 544.291V545.047C1029.66 547.063 1029.34 548.767 1028.69 550.159C1028.04 551.527 1027.16 552.559 1026.06 553.255C1024.96 553.927 1023.74 554.263 1022.42 554.263C1021.15 554.263 1020.08 554.023 1019.22 553.543C1018.36 553.063 1017.7 552.451 1017.24 551.707V560.419H1012.27ZM1020.88 550.987C1021.57 550.987 1022.18 550.807 1022.71 550.447C1023.26 550.087 1023.7 549.571 1024.01 548.899C1024.32 548.227 1024.48 547.399 1024.48 546.415V543.211C1024.48 542.107 1024.32 541.207 1024.01 540.511C1023.7 539.791 1023.26 539.263 1022.71 538.927C1022.18 538.567 1021.57 538.387 1020.88 538.387C1020.23 538.387 1019.62 538.555 1019.04 538.891C1018.49 539.227 1018.04 539.743 1017.71 540.439C1017.37 541.135 1017.2 542.047 1017.2 543.175V546.415C1017.2 547.399 1017.36 548.239 1017.67 548.935C1018.01 549.607 1018.45 550.123 1019 550.483C1019.58 550.819 1020.2 550.987 1020.88 550.987ZM1038.58 554.263C1037.59 554.263 1036.64 554.107 1035.73 553.795C1034.84 553.459 1034.11 552.919 1033.54 552.175C1032.96 551.407 1032.67 550.375 1032.67 549.079C1032.67 547.759 1032.96 546.691 1033.54 545.875C1034.14 545.059 1034.96 544.435 1036.02 544.003C1037.1 543.547 1038.38 543.235 1039.87 543.067C1041.38 542.899 1043.08 542.815 1044.95 542.815V541.195C1044.95 540.139 1044.66 539.395 1044.08 538.963C1043.51 538.507 1042.67 538.279 1041.56 538.279C1040.63 538.279 1039.8 538.495 1039.08 538.927C1038.38 539.335 1038.04 539.971 1038.04 540.835V541.123H1033.32C1033.3 541.051 1033.28 540.955 1033.28 540.835C1033.28 540.691 1033.28 540.571 1033.28 540.475C1033.28 539.419 1033.62 538.495 1034.29 537.703C1034.96 536.887 1035.9 536.263 1037.1 535.831C1038.3 535.375 1039.69 535.147 1041.28 535.147H1042.03C1044.62 535.147 1046.56 535.663 1047.83 536.695C1049.1 537.703 1049.74 539.071 1049.74 540.799V549.763C1049.74 550.219 1049.84 550.543 1050.06 550.735C1050.3 550.927 1050.55 551.023 1050.82 551.023C1051.03 551.023 1051.27 550.987 1051.54 550.915C1051.8 550.819 1052.05 550.711 1052.29 550.591V553.471C1051.98 553.711 1051.56 553.903 1051.03 554.047C1050.53 554.191 1049.92 554.263 1049.2 554.263C1048.33 554.263 1047.61 554.131 1047.04 553.867C1046.46 553.579 1046.02 553.195 1045.7 552.715C1045.42 552.235 1045.24 551.683 1045.16 551.059C1044.49 552.019 1043.6 552.799 1042.5 553.399C1041.4 553.975 1040.09 554.263 1038.58 554.263ZM1040.88 551.023C1041.55 551.023 1042.19 550.867 1042.79 550.555C1043.41 550.243 1043.93 549.787 1044.34 549.187C1044.74 548.563 1044.95 547.795 1044.95 546.883V545.407C1043.41 545.407 1042.1 545.503 1041.02 545.695C1039.97 545.887 1039.16 546.211 1038.61 546.667C1038.06 547.099 1037.78 547.735 1037.78 548.575C1037.78 549.463 1038.05 550.099 1038.58 550.483C1039.13 550.843 1039.9 551.023 1040.88 551.023ZM1062.24 554.263C1061.09 554.263 1060.05 554.119 1059.11 553.831C1058.18 553.543 1057.36 553.159 1056.66 552.679C1055.99 552.175 1055.48 551.599 1055.12 550.951C1054.76 550.279 1054.58 549.559 1054.58 548.791C1054.58 548.647 1054.58 548.527 1054.58 548.431C1054.58 548.335 1054.59 548.203 1054.61 548.035H1058.79C1058.76 548.107 1058.75 548.179 1058.75 548.251C1058.75 548.299 1058.75 548.347 1058.75 548.395C1058.75 548.995 1058.96 549.499 1059.36 549.907C1059.77 550.291 1060.3 550.579 1060.95 550.771C1061.6 550.939 1062.29 551.023 1063.04 551.023C1063.64 551.023 1064.24 550.951 1064.84 550.807C1065.46 550.663 1065.98 550.435 1066.38 550.123C1066.79 549.787 1067 549.367 1067 548.863C1067 548.311 1066.78 547.891 1066.35 547.603C1065.94 547.291 1065.38 547.051 1064.66 546.883C1063.96 546.691 1063.19 546.535 1062.35 546.415C1061.51 546.271 1060.66 546.103 1059.8 545.911C1058.96 545.695 1058.18 545.395 1057.46 545.011C1056.76 544.627 1056.2 544.111 1055.76 543.463C1055.36 542.791 1055.15 541.915 1055.15 540.835C1055.15 539.923 1055.36 539.107 1055.76 538.387C1056.2 537.667 1056.77 537.067 1057.49 536.587C1058.24 536.107 1059.08 535.747 1060.01 535.507C1060.97 535.267 1061.97 535.147 1063 535.147H1063.72C1064.68 535.147 1065.59 535.267 1066.46 535.507C1067.34 535.747 1068.14 536.095 1068.83 536.551C1069.53 536.983 1070.07 537.511 1070.45 538.135C1070.86 538.735 1071.06 539.395 1071.06 540.115C1071.06 540.235 1071.05 540.379 1071.03 540.547C1071.03 540.691 1071.02 540.787 1070.99 540.835H1066.82V540.547C1066.82 540.283 1066.74 540.031 1066.6 539.791C1066.48 539.527 1066.26 539.287 1065.95 539.071C1065.66 538.855 1065.28 538.687 1064.8 538.567C1064.34 538.423 1063.79 538.351 1063.14 538.351C1062.57 538.351 1062.05 538.411 1061.6 538.531C1061.14 538.627 1060.76 538.771 1060.44 538.963C1060.13 539.131 1059.9 539.335 1059.76 539.575C1059.62 539.815 1059.54 540.055 1059.54 540.295C1059.54 540.799 1059.76 541.195 1060.19 541.483C1060.62 541.747 1061.19 541.963 1061.88 542.131C1062.6 542.275 1063.38 542.419 1064.22 542.563C1065.09 542.683 1065.94 542.839 1066.78 543.031C1067.62 543.223 1068.4 543.523 1069.12 543.931C1069.84 544.315 1070.4 544.843 1070.81 545.515C1071.24 546.187 1071.46 547.063 1071.46 548.143C1071.46 549.271 1071.24 550.231 1070.81 551.023C1070.38 551.815 1069.78 552.451 1069.01 552.931C1068.24 553.387 1067.38 553.723 1066.42 553.939C1065.46 554.155 1064.45 554.263 1063.4 554.263H1062.24Z" fill="#2B4F2E"/>
<g opacity="0.146862">
<rect x="131.547" y="236.622" width="23.8444" height="29.8056" transform="rotate(166.816 131.547 236.622)" fill="#2B4F2E" fill-opacity="0.5"/>
</g>
<g opacity="0.982472">
<rect x="121.066" y="452.738" width="23.8444" height="29.8056" transform="rotate(-12.677 121.066 452.738)" fill="#2B4F2E" fill-opacity="0.5"/>
</g>
<g opacity="0.495993">
<rect x="1245.42" y="249.145" width="23.8444" height="29.8056" transform="rotate(-141.465 1245.42 249.145)" fill="#2B4F2E" fill-opacity="0.5"/>
</g>
<g opacity="0.44799">
<rect x="1157.82" y="494.582" width="23.8444" height="29.8056" transform="rotate(-18.2539 1157.82 494.582)" fill="#2B4F2E" fill-opacity="0.5"/>
</g>
<g opacity="0.734701">
<rect x="188.666" y="129.239" width="23.8444" height="29.8056" transform="rotate(-8.11439 188.666 129.239)" fill="#2B4F2E" fill-opacity="0.5"/>
</g>
<g opacity="0.610049">
<rect x="661.42" y="132.928" width="23.8444" height="29.8056" transform="rotate(-59.3244 661.42 132.928)" fill="#2B4F2E" fill-opacity="0.5"/>
</g>
<g opacity="0.582871">
<rect x="970.146" y="110.789" width="23.8444" height="29.8056" transform="rotate(-145.522 970.146 110.789)" fill="#2B4F2E" fill-opacity="0.5"/>
</g>
</g>
<defs>
<linearGradient id="paint0_linear_192_585" x1="989" y1="327.664" x2="420.964" y2="359.398" gradientUnits="userSpaceOnUse">
<stop stop-color="#1B311D"/>
<stop offset="1" stop-color="#2B4F2E"/>
</linearGradient>
<clipPath id="clip0_192_585">
<rect width="1440" height="807" fill="white"/>
</clipPath>
</defs>
</svg>
