<svg width="432" height="888" viewBox="0 0 432 888" fill="none" xmlns="http://www.w3.org/2000/svg">
<path d="M160.506 874.629C159.303 874.629 154.245 880.264 151.418 883.605C151.102 883.978 151.071 884.528 151.467 884.814C153.994 886.638 161.589 886.638 164.514 886.638C167.029 886.638 180.028 876.885 186.577 871.727C186.822 871.534 186.966 871.25 187 870.941C188.037 861.627 200.848 852.164 207.505 848.375C207.698 848.265 207.91 848.221 208.131 848.239C217.052 848.977 234.248 847.586 234.248 836.202C234.248 824.899 244.007 824.986 249.173 826.503C249.374 826.562 249.584 826.568 249.785 826.509C253.8 825.346 259.735 821.806 253.485 816.188C247.072 810.424 250.813 807.381 253.485 806.581C259.63 804.98 271.279 800.496 268.714 795.373C265.508 788.968 268.714 788.168 268.714 786.567C268.714 785.574 268.072 783.236 267.535 781.488C267.326 780.808 267.79 780.1 268.498 780.036L275.531 779.397C275.787 779.374 276.031 779.256 276.219 779.079C281.518 774.099 285.83 778.549 287.637 781.933C287.839 782.312 288.226 782.566 288.656 782.551C296.191 782.28 306.483 777.822 310.997 775.463C311.131 775.393 311.242 775.301 311.336 775.184C314.618 771.127 322.001 763.35 326.425 763.35C330.839 763.35 342.852 755.606 348.585 751.543C348.772 751.41 348.988 751.346 349.217 751.324C353.868 750.877 365.353 741.993 370.965 737.226C371.189 737.036 371.478 736.947 371.773 736.962C378.414 737.303 382.668 732.895 384.424 729.905C384.734 729.378 385.387 729.138 385.965 729.336C389.619 730.586 395.357 730.452 395.357 721.72C395.357 713.093 399.236 711.568 401.768 711.926C402.253 711.995 402.763 711.837 403.038 711.432C407.895 704.288 415.554 690.938 410.586 689.697C406.24 688.612 406.19 675.958 406.926 666.924C407.019 665.776 408.926 665.465 409.877 666.114C410.788 666.736 411.858 666.812 412.991 665.68C415.459 663.215 411.693 657.588 409.263 654.789C409.084 654.583 408.982 654.319 408.987 654.046C409.122 646.656 412.759 643.249 414.594 642.464C418.067 641.396 424.213 638.141 421.006 633.658C416.999 628.054 410.586 618.447 412.189 609.64C413.415 602.911 410.836 593.211 409.206 588.634C409.071 588.255 409.146 587.839 409.398 587.525C412.577 583.569 416.727 575.506 410.586 571.213C405 567.308 405.497 562.309 406.778 559.497C407.053 558.893 406.867 558.107 406.456 557.586C403.079 553.305 400.406 535.841 399.398 526.683C399.376 526.481 399.301 526.299 399.18 526.137C396.462 522.482 391.524 513.18 392.151 503.165C392.953 490.355 380.929 483.951 378.525 484.751C376.635 485.38 368.406 475.249 364.316 469.831C364.172 469.64 364.099 469.413 364.091 469.174C363.956 464.855 361.554 453.552 356.883 454.33C354.195 454.777 353.698 452.124 353.916 449.483C354.003 448.436 352.697 447.578 351.724 447.97C347.866 449.525 347.532 445.523 348.868 441.521C350.07 437.92 346.204 434.506 343.734 432.993C343.438 432.811 343.071 432.799 342.752 432.938C337.27 435.324 327.226 438.482 327.226 433.515C327.226 427.11 318.409 416.703 313.6 416.703C308.791 416.703 289.554 399.09 288.752 392.686C287.951 386.281 270.317 368.669 262.302 365.466C256.057 362.972 251.333 340.031 249.61 327.987C249.532 327.442 249.07 327.043 248.527 326.947C242.231 325.833 227.955 314.827 220.968 308.92C220.743 308.729 220.611 308.459 220.583 308.165C219.535 297.133 209.345 286.945 205.392 282.207C202.52 278.765 202.864 273.781 203.543 271.053C203.669 270.549 204.171 270.266 204.674 270.136C209.803 268.807 212.085 250.849 212.601 241.469C212.605 241.407 212.613 241.346 212.627 241.285C216.648 223.735 226.238 214.961 229.439 215.76C232.645 216.56 244.668 204.552 249.477 201.349C254.286 198.147 256.691 191.743 256.691 183.737C256.691 177.633 262.516 173.468 265.838 171.935C266.136 171.798 266.364 171.55 266.463 171.237C268.682 164.253 273.598 153.188 276.729 161.321C279.57 168.698 283.88 167.821 286.311 166.04C286.803 165.68 286.8 164.976 286.378 164.536C283.424 161.453 279.401 156.517 282.34 156.517C285.405 156.517 295.065 153.103 300.11 151.17C300.517 151.014 300.788 150.622 300.816 150.187C301.834 134.078 310.464 133.301 315.203 133.301C318.954 133.301 325.04 126.2 327.819 122.382C327.957 122.193 328.152 122.049 328.376 121.984C333.464 120.513 332.154 126.107 330.663 129.58C330.523 129.908 330.529 130.29 330.744 130.575C334.035 134.955 340.051 123.518 340.051 118.09C340.051 112.486 307.989 113.287 304.783 114.888C302.287 116.134 289.47 108.385 282.873 104.033C282.542 103.815 282.361 103.426 282.375 103.03C282.732 92.5346 272.627 94.073 267.912 94.073C264.163 94.073 261.632 83.9359 260.763 78.4798C260.72 78.2094 260.578 77.9655 260.371 77.7864C253.886 72.1829 254.018 62.91 254.983 58.4967C255.046 58.2077 255.241 57.9581 255.495 57.8064C268.65 49.9448 265.492 45.1817 263.905 39.6342C262.676 35.3399 247.132 37.0687 238.545 38.6292C237.941 38.7389 237.372 38.3323 237.184 37.7479C234.753 30.169 222.749 31.7671 216.614 34.8308C210.202 38.033 190.163 14.0159 183.751 10.8136C178.723 8.30278 163.532 18.9164 156.138 24.8672C155.858 25.0925 155.714 25.4399 155.733 25.7989C156.165 34.0279 153.011 38.7122 151.134 40.2457C150.976 40.3752 150.771 40.4422 150.567 40.4569C138.907 41.2928 141.212 44.4663 134.857 47.6399C128.445 50.8421 129.246 45.2382 118.826 42.8365C110.639 40.9495 111.06 51.7784 112.343 57.7277C112.389 57.9387 112.374 58.1535 112.297 58.3551C110.653 62.661 107.429 69.6298 106.803 65.2525C106.218 61.1586 94.8936 52.7478 87.8452 48.0667C87.0814 47.5595 86.0447 48.1725 85.9843 49.0874C85.7884 52.0562 84.6636 55.6455 81.1539 55.6455C75.5431 55.6455 75.5431 39.6341 71.5354 45.2381C67.5277 50.8421 53.1 69.2553 52.2985 66.8536C51.497 64.4519 22.6416 41.2353 21.0385 46.8393C19.4354 52.4433 1 63.6513 1 68.4547C1 72.2241 14.8826 86.5726 22.2211 93.6674C22.4866 93.9241 22.8589 94.0117 23.2277 93.9927C27.8407 93.7551 31.3265 102.898 33.0764 109.783C33.3441 110.836 35.0204 111.049 35.7425 110.237C39.9424 105.512 46.6862 108.13 50.2691 110.583C50.5424 110.77 50.707 111.078 50.7175 111.409C51.0178 120.885 45.9133 129.305 41.6868 134.219C40.942 135.085 41.6725 138.106 42.5089 138.884C48.925 144.849 55.7772 164.915 57.1077 162.922C58.7108 160.52 77.1462 165.324 85.1616 171.728C93.177 178.133 97.9862 170.928 108.406 159.72C118.826 148.512 126.04 162.121 134.857 168.526C143.674 174.931 139.666 176.532 134.857 182.136C130.048 187.74 131.651 187.74 141.269 187.74C148.541 187.74 145.409 192.506 142.562 195.283C142.265 195.572 142.133 196 142.276 196.39C144.574 202.662 153.835 202.917 158.596 202.199C158.799 202.168 159.015 202.194 159.202 202.28C172.148 208.289 146.844 243.726 142.071 236.575C138.432 231.122 123.51 232.403 115.349 233.913C114.659 234.04 114.281 234.778 114.495 235.445C116.006 240.163 116.144 248.721 106.803 253.387C96.6842 258.44 114.841 265.466 125.595 268.474C125.883 268.555 126.115 268.741 126.269 268.997C131.523 277.715 153.401 287.823 160.506 288.612C165.719 289.19 172.195 294.166 175.566 297.287C176.077 297.76 175.996 298.578 175.442 299C171.535 301.972 166.895 307.522 173.331 311.028C178.464 313.824 181.927 318.769 183.845 322.591C184.345 323.589 187.158 324.113 188.21 323.741C189.413 323.316 190.769 323.12 191.834 323.058C192.278 323.033 192.675 323.3 192.859 323.705C197.234 333.341 211.223 348.239 220.621 364.666C228.027 377.61 236.026 380.222 239.475 379.924C239.726 379.903 239.985 379.947 240.202 380.072C252.626 387.242 249.535 396.062 255.889 415.102C262.301 434.315 269.515 425.509 271.92 423.908C273.696 422.726 276.974 429.639 278.729 434.068C278.957 434.643 279.607 434.915 280.216 434.808C286.095 433.771 292.972 442.44 296.255 447.855C296.552 448.346 297.168 448.535 297.699 448.319C306.035 444.932 307.077 451.672 306.483 456.107C306.431 456.496 306.161 456.813 305.795 456.955C300.599 458.976 291.71 463.809 293.561 468.74C295.966 475.144 327.226 494.358 315.203 503.965C306.542 510.885 309.363 517.46 312.546 520.648C313.052 521.155 313.071 522.034 312.694 522.642C310.411 526.317 310.167 535.468 310.374 540.372C310.386 540.644 310.296 540.91 310.128 541.123C299.59 554.485 303.181 571.951 306.353 579.144C306.376 579.195 306.403 579.244 306.433 579.292C320.807 601.649 317.602 608.052 312.798 620.048C308.986 629.566 312.204 645.11 314.342 651.884C314.382 652.011 314.398 652.143 314.391 652.275C313.593 668.116 312.757 672.078 303.18 670.484C296.122 669.309 292.121 672.983 290.683 675.453C290.463 675.829 290.075 676.084 289.641 676.114C287.326 676.273 283.493 677.211 282.34 680.091C281.131 683.108 275.083 683.993 271.707 684.085C271.339 684.095 270.999 684.281 270.777 684.575C267.521 688.897 262.024 688.897 254.286 688.897C248.048 688.897 247.373 696.473 247.833 700.57C247.857 700.79 247.822 701.01 247.719 701.206C245.747 704.96 241.022 710.697 236.652 705.709C231.041 699.304 227.034 704.908 220.621 707.31C214.209 709.712 214.209 714.515 215.812 723.321C217.082 730.297 227.364 742.559 232.494 747.98C232.596 748.088 232.674 748.216 232.725 748.355C236.139 757.662 231.294 758.695 227.821 757.951C227.348 757.849 227.053 757.404 226.884 756.95C225.86 754.199 219.833 751.754 216.304 750.686C215.992 750.591 215.74 750.365 215.585 750.077C212.871 745.032 205.065 745.964 201.017 747.2C200.737 747.286 200.519 747.489 200.318 747.701C197.993 750.151 184.801 753.14 177.791 754.459C177.499 754.514 177.243 754.688 177.075 754.934C165.908 771.363 150.976 774.376 144.278 773.82C143.901 773.788 143.524 773.938 143.288 774.234C138.237 780.582 139.054 783.35 140.265 784.065C140.394 784.141 140.524 784.218 140.622 784.33C142.312 786.259 142.332 790.508 142.103 792.69C142.083 792.875 142.104 793.065 142.187 793.232C143.565 796.032 147.37 794.312 149.215 793.02C149.262 792.987 149.31 792.958 149.362 792.933C154.919 790.276 164.789 798.03 170.804 803.96C171.582 804.726 170.954 807.36 170.098 808.036C167.034 810.453 163.027 815.264 160.726 818.298C160.581 818.488 160.507 818.703 160.504 818.942C160.384 831.316 154.101 868.255 154.895 871.427C155.697 874.629 162.109 874.629 160.506 874.629Z" stroke="#2B4F2E" stroke-opacity="0.3" stroke-width="1.10274" stroke-linecap="square" stroke-linejoin="round"/>
<path d="M168.942 866.193C167.739 866.193 162.682 871.828 159.854 875.169C159.538 875.542 159.507 876.092 159.904 876.378C162.43 878.202 170.025 878.202 172.95 878.202C175.466 878.202 188.465 868.449 195.014 863.29C195.258 863.098 195.402 862.814 195.437 862.505C196.473 853.191 209.284 843.728 215.941 839.939C216.135 839.829 216.346 839.785 216.568 839.803C225.488 840.541 242.684 839.15 242.684 827.766C242.684 816.463 252.443 816.55 257.609 818.066C257.81 818.125 258.02 818.132 258.221 818.073C262.236 816.91 268.172 813.37 261.921 807.752C255.509 801.987 259.249 798.945 261.921 798.145C268.066 796.544 279.715 792.06 277.15 786.937C273.944 780.532 277.15 779.732 277.15 778.13C277.15 777.138 276.509 774.8 275.971 773.052C275.762 772.372 276.226 771.664 276.935 771.6L283.967 770.961C284.224 770.938 284.467 770.82 284.655 770.643C289.954 765.663 294.266 770.112 296.073 773.497C296.276 773.876 296.662 774.13 297.092 774.115C304.627 773.844 314.919 769.386 319.434 767.027C319.567 766.957 319.678 766.865 319.773 766.747C323.054 762.691 330.437 754.914 334.861 754.914C339.276 754.914 351.288 747.17 357.021 743.107C357.208 742.974 357.424 742.91 357.653 742.888C362.304 742.441 373.789 733.557 379.401 728.79C379.626 728.6 379.915 728.511 380.209 728.526C386.851 728.867 391.104 724.459 392.86 721.469C393.17 720.942 393.824 720.702 394.402 720.9C398.055 722.15 403.793 722.016 403.793 713.284C403.793 704.657 407.672 703.132 410.204 703.49C410.689 703.559 411.199 703.401 411.475 702.996C416.331 695.852 423.99 682.502 419.023 681.261C414.677 680.176 414.626 667.522 415.362 658.488C415.456 657.34 417.362 657.029 418.314 657.678C419.225 658.3 420.295 658.376 421.427 657.244C423.895 654.779 420.129 649.152 417.699 646.352C417.52 646.147 417.418 645.883 417.423 645.61C417.559 638.22 421.195 634.813 423.03 634.028C426.504 632.96 432.649 629.705 429.443 625.221C425.435 619.617 419.023 610.011 420.626 601.204C421.851 594.475 419.273 584.774 417.642 580.198C417.507 579.819 417.582 579.403 417.834 579.089C421.013 575.133 425.164 567.07 419.023 562.777C413.437 558.872 413.933 553.873 415.214 551.061C415.489 550.457 415.304 549.671 414.893 549.15C411.516 544.869 408.842 527.404 407.834 518.247C407.812 518.045 407.737 517.863 407.616 517.701C404.898 514.046 399.961 504.744 400.587 494.728C401.389 481.919 389.366 475.515 386.961 476.315C385.072 476.944 376.842 466.813 372.752 461.395C372.608 461.204 372.535 460.977 372.527 460.738C372.393 456.419 369.99 445.116 365.32 445.894C362.631 446.341 362.134 443.688 362.353 441.047C362.439 440 361.134 439.142 360.16 439.534C356.302 441.089 355.968 437.087 357.304 433.085C358.506 429.484 354.64 426.07 352.17 424.557C351.874 424.375 351.507 424.363 351.188 424.502C345.706 426.887 335.663 430.046 335.663 425.079C335.663 418.674 326.846 408.267 322.036 408.267C317.227 408.267 297.99 390.654 297.189 384.25C296.387 377.845 278.753 360.233 270.738 357.03C264.494 354.536 259.77 331.595 258.046 319.551C257.968 319.006 257.507 318.607 256.964 318.511C250.667 317.397 236.391 306.391 229.405 300.484C229.179 300.293 229.047 300.023 229.019 299.729C227.971 288.697 217.781 278.509 213.829 273.771C210.957 270.329 211.301 265.345 211.98 262.617C212.105 262.112 212.607 261.83 213.11 261.7C218.239 260.371 220.522 242.413 221.038 233.033C221.041 232.971 221.05 232.91 221.064 232.849C225.084 215.299 234.674 206.525 237.875 207.324C241.081 208.124 253.104 196.116 257.913 192.913C262.723 189.711 265.127 183.307 265.127 175.301C265.127 169.197 270.952 165.032 274.274 163.499C274.572 163.362 274.8 163.114 274.899 162.801C277.118 155.817 282.034 144.752 285.166 152.885C288.007 160.262 292.316 159.385 294.748 157.604C295.24 157.244 295.236 156.54 294.815 156.1C291.86 153.017 287.837 148.081 290.776 148.081C293.842 148.081 303.501 144.667 308.547 142.734C308.954 142.578 309.225 142.186 309.252 141.751C310.27 125.642 318.901 124.865 323.64 124.865C327.39 124.865 333.477 117.764 336.256 113.946C336.393 113.757 336.589 113.613 336.812 113.548C341.901 112.077 340.591 117.671 339.1 121.144C338.959 121.472 338.965 121.854 339.18 122.139C342.471 126.519 348.487 115.082 348.487 109.654C348.487 104.05 316.426 104.851 313.22 106.452C310.724 107.698 297.906 99.9494 291.31 95.5971C290.978 95.3785 290.797 94.9903 290.811 94.5936C291.168 84.0985 281.063 85.6369 276.349 85.6369C272.599 85.6369 270.068 75.4999 269.2 70.0438C269.157 69.7733 269.015 69.5294 268.807 69.3504C262.323 63.7469 262.455 54.4739 263.419 50.0607C263.482 49.7716 263.677 49.5221 263.931 49.3703C277.086 41.5087 273.928 36.7457 272.341 31.1982C271.113 26.9038 255.568 28.6327 246.981 30.1932C246.377 30.3029 245.808 29.8962 245.62 29.3118C243.189 21.7329 231.185 23.3311 225.05 26.3947C218.638 29.597 198.599 5.57985 192.187 2.37757C187.159 -0.133254 171.968 10.4804 164.574 16.4311C164.294 16.6565 164.15 17.0039 164.169 17.3629C164.601 25.5919 161.447 30.2762 159.571 31.8097C159.412 31.9392 159.208 32.0062 159.003 32.0208C147.343 32.8568 149.648 36.0303 143.293 39.2038C136.881 42.4061 137.683 36.8022 127.263 34.4005C119.075 32.5134 119.496 43.3424 120.779 49.2917C120.825 49.5026 120.811 49.7175 120.734 49.9191C119.09 54.225 115.866 61.1937 115.239 56.8165C114.654 52.7226 103.33 44.3118 96.2814 39.6307C95.5177 39.1234 94.481 39.7364 94.4206 40.6513C94.2247 43.6202 93.0999 47.2095 89.5902 47.2095C83.9794 47.2095 83.9794 31.1981 79.9717 36.8021C75.964 42.4061 61.5363 60.8192 60.7348 58.4175C59.9332 56.0158 31.0778 32.7993 29.4748 38.4033C27.8717 44.0073 9.43628 55.2152 9.43628 60.0187C9.43628 63.7881 23.3189 78.1366 30.6573 85.2314C30.9228 85.4881 31.2952 85.5756 31.664 85.5566C36.277 85.3191 39.7628 94.4615 41.5126 101.347C41.7803 102.4 43.4567 102.613 44.1788 101.801C48.3786 97.0765 55.1224 99.6942 58.7054 102.147C58.9786 102.334 59.1433 102.642 59.1538 102.973C59.4541 112.449 54.3496 120.869 50.123 125.783C49.3783 126.649 50.1087 129.67 50.9452 130.448C57.3613 136.413 64.2135 156.479 65.544 154.486C67.1471 152.084 85.5825 156.888 93.5979 163.292C101.613 169.697 106.422 162.492 116.842 151.284C127.263 140.076 134.476 153.685 143.293 160.09C152.11 166.494 148.103 168.096 143.293 173.7C138.484 179.304 140.087 179.304 149.706 179.304C156.978 179.304 153.846 184.07 150.999 186.847C150.702 187.136 150.57 187.564 150.712 187.954C153.01 194.226 162.271 194.481 167.032 193.763C167.235 193.732 167.452 193.758 167.638 193.844C180.584 199.853 155.28 235.29 150.507 228.138C146.868 222.686 131.947 223.967 123.785 225.477C123.096 225.604 122.717 226.342 122.931 227.009C124.442 231.727 124.58 240.285 115.239 244.95C105.12 250.004 123.277 257.03 134.031 260.038C134.319 260.118 134.551 260.305 134.706 260.561C139.959 269.279 161.837 279.387 168.942 280.176C174.155 280.754 180.632 285.73 184.002 288.851C184.513 289.324 184.432 290.142 183.878 290.564C179.971 293.536 175.332 299.086 181.767 302.592C186.9 305.388 190.364 310.333 192.281 314.155C192.781 315.153 195.594 315.677 196.646 315.305C197.849 314.88 199.205 314.684 200.27 314.622C200.715 314.597 201.111 314.864 201.295 315.269C205.67 324.905 219.659 339.803 229.058 356.23C236.463 369.174 244.463 371.786 247.912 371.488C248.162 371.467 248.421 371.511 248.639 371.636C261.062 378.806 257.971 387.626 264.325 406.666C270.738 425.879 277.952 417.073 280.356 415.472C282.132 414.29 285.411 421.203 287.165 425.632C287.393 426.207 288.044 426.479 288.652 426.372C294.531 425.334 301.409 434.004 304.691 439.419C304.988 439.91 305.604 440.099 306.135 439.883C314.472 436.495 315.514 443.236 314.919 447.671C314.867 448.06 314.597 448.377 314.232 448.519C309.036 450.54 300.146 455.373 301.998 460.304C304.402 466.708 335.662 485.922 323.639 495.529C314.978 502.449 317.799 509.023 320.982 512.212C321.488 512.719 321.508 513.598 321.13 514.206C318.847 517.881 318.603 527.032 318.811 531.936C318.822 532.208 318.733 532.474 318.564 532.687C308.026 546.049 311.617 563.515 314.789 570.708C314.812 570.759 314.839 570.808 314.869 570.856C329.243 593.213 326.039 599.616 321.235 611.612C317.423 621.13 320.64 636.674 322.779 643.448C322.818 643.575 322.834 643.706 322.827 643.839C322.029 659.68 321.194 663.642 311.616 662.048C304.558 660.873 300.557 664.547 299.119 667.017C298.9 667.393 298.511 667.648 298.077 667.678C295.762 667.837 291.929 668.775 290.776 671.655C289.568 674.672 283.52 675.557 280.143 675.649C279.775 675.659 279.435 675.845 279.213 676.139C275.957 680.461 270.46 680.461 262.722 680.461C256.485 680.461 255.809 688.037 256.269 692.134C256.293 692.354 256.259 692.574 256.156 692.77C254.183 696.524 249.459 702.261 245.088 697.273C239.478 690.868 235.47 696.472 229.058 698.874C222.645 701.276 222.645 706.079 224.248 714.885C225.518 721.861 235.8 734.123 240.93 739.544C241.032 739.652 241.11 739.78 241.161 739.919C244.576 749.226 239.73 750.259 236.258 749.515C235.784 749.413 235.489 748.968 235.32 748.514C234.296 745.763 228.269 743.318 224.74 742.25C224.428 742.155 224.176 741.929 224.021 741.641C221.307 736.596 213.501 737.528 209.453 738.764C209.174 738.849 208.956 739.053 208.754 739.265C206.43 741.715 193.237 744.704 186.228 746.023C185.935 746.078 185.679 746.252 185.511 746.498C174.344 762.927 159.412 765.94 152.714 765.384C152.337 765.352 151.961 765.502 151.725 765.798C146.673 772.146 147.491 774.914 148.701 775.629C148.83 775.705 148.96 775.781 149.058 775.894C150.748 777.823 150.768 782.072 150.539 784.254C150.52 784.439 150.54 784.628 150.623 784.796C152.001 787.596 155.806 785.876 157.651 784.584C157.698 784.551 157.747 784.522 157.799 784.497C163.356 781.84 173.225 789.594 179.241 795.524C180.018 796.29 179.391 798.924 178.534 799.6C175.471 802.017 171.464 806.828 169.162 809.862C169.018 810.052 168.943 810.267 168.94 810.506C168.82 822.88 162.538 859.819 163.331 862.991C164.133 866.193 170.545 866.193 168.942 866.193Z" fill="#2B4F2E" fill-opacity="0.07" stroke="#2B4F2E" stroke-width="2.20548" stroke-linecap="square" stroke-linejoin="round"/>
<circle cx="233.126" cy="122.75" r="3.85958" fill="#2B4F2E"/>
<circle cx="233.126" cy="186.708" r="3.85958" fill="#2B4F2E"/>
<circle cx="343.4" cy="439.236" r="3.85958" fill="#2B4F2E"/>
<circle cx="377.585" cy="484.447" r="3.85958" fill="#2B4F2E"/>
<circle cx="335.681" cy="610.16" r="3.85958" fill="#2B4F2E"/>
<path d="M233.126 122.75C239.008 137.269 247.241 170.498 233.126 187.26C215.5 208.191 387.166 313.313 344.631 438.858C344.55 439.098 344.547 439.356 344.635 439.593C349.522 452.774 362.723 479.525 377.585 483.896C396.332 489.41 359.941 590.31 335.681 610.711" stroke="#2B4F2E" stroke-width="1.10274" stroke-linejoin="round" stroke-dasharray="8.82 8.82"/>
<path d="M255.055 126.582V115.661H256.472V120.421H261.63V115.661H263.047V126.582H261.646V121.599H256.488V126.582H255.055ZM267.894 126.741C267.459 126.741 267.045 126.672 266.652 126.534C266.26 126.396 265.936 126.163 265.681 125.834C265.437 125.505 265.315 125.054 265.315 124.481C265.315 123.886 265.448 123.414 265.713 123.064C265.978 122.703 266.355 122.432 266.843 122.252C267.331 122.071 267.91 121.949 268.579 121.886C269.247 121.822 269.99 121.79 270.807 121.79V120.899C270.807 120.294 270.653 119.869 270.346 119.625C270.048 119.381 269.576 119.259 268.929 119.259C268.377 119.259 267.899 119.376 267.496 119.609C267.093 119.832 266.891 120.203 266.891 120.723V120.93H265.617C265.607 120.877 265.596 120.819 265.586 120.755C265.586 120.692 265.586 120.628 265.586 120.564C265.586 120.087 265.729 119.678 266.015 119.338C266.302 118.999 266.695 118.739 267.193 118.558C267.692 118.378 268.255 118.288 268.881 118.288H269.04C270.07 118.288 270.839 118.495 271.349 118.909C271.858 119.322 272.113 119.927 272.113 120.723V125.197C272.113 125.399 272.155 125.542 272.24 125.627C272.325 125.701 272.426 125.738 272.543 125.738C272.649 125.738 272.771 125.717 272.909 125.675C273.057 125.632 273.19 125.579 273.307 125.515V126.423C273.169 126.518 272.999 126.593 272.797 126.646C272.606 126.709 272.389 126.741 272.145 126.741C271.816 126.741 271.556 126.672 271.365 126.534C271.184 126.396 271.051 126.216 270.967 125.993C270.892 125.759 270.85 125.505 270.839 125.229C270.521 125.728 270.112 126.104 269.613 126.359C269.125 126.614 268.552 126.741 267.894 126.741ZM268.372 125.738C268.775 125.738 269.157 125.653 269.518 125.484C269.889 125.303 270.197 125.032 270.441 124.672C270.685 124.3 270.807 123.833 270.807 123.271V122.682C269.958 122.682 269.221 122.719 268.594 122.793C267.979 122.867 267.501 123.027 267.162 123.271C266.833 123.504 266.668 123.876 266.668 124.385C266.668 124.852 266.806 125.197 267.082 125.42C267.358 125.632 267.788 125.738 268.372 125.738ZM275.293 126.582V118.447H276.232L276.439 119.641C276.736 119.206 277.124 118.871 277.601 118.638C278.079 118.404 278.594 118.288 279.145 118.288C279.708 118.288 280.207 118.394 280.642 118.606C281.077 118.818 281.417 119.142 281.661 119.577C281.916 120.002 282.043 120.538 282.043 121.185V126.582H280.706V121.424C280.706 120.681 280.536 120.15 280.196 119.832C279.857 119.514 279.384 119.354 278.779 119.354C278.376 119.354 278.01 119.45 277.681 119.641C277.352 119.832 277.092 120.097 276.901 120.437C276.71 120.766 276.614 121.137 276.614 121.551V126.582H275.293ZM287.993 126.741C287.303 126.741 286.687 126.577 286.146 126.248C285.605 125.919 285.18 125.452 284.872 124.847C284.565 124.231 284.411 123.494 284.411 122.634V122.379C284.411 121.519 284.565 120.787 284.872 120.182C285.191 119.567 285.621 119.1 286.162 118.781C286.714 118.452 287.329 118.288 288.009 118.288H288.168C288.858 118.288 289.473 118.452 290.015 118.781C290.556 119.1 290.98 119.567 291.288 120.182C291.596 120.787 291.75 121.519 291.75 122.379V122.634C291.75 123.494 291.591 124.231 291.272 124.847C290.964 125.462 290.54 125.935 289.999 126.264C289.457 126.582 288.842 126.741 288.152 126.741H287.993ZM288.072 125.738C288.507 125.738 288.895 125.637 289.234 125.436C289.585 125.224 289.861 124.91 290.062 124.497C290.264 124.072 290.365 123.552 290.365 122.936V122.077C290.365 121.45 290.264 120.93 290.062 120.516C289.861 120.103 289.585 119.795 289.234 119.593C288.895 119.381 288.507 119.275 288.072 119.275C287.648 119.275 287.26 119.381 286.91 119.593C286.571 119.795 286.3 120.103 286.098 120.516C285.897 120.93 285.796 121.45 285.796 122.077V122.936C285.796 123.552 285.897 124.072 286.098 124.497C286.3 124.91 286.571 125.224 286.91 125.436C287.26 125.637 287.648 125.738 288.072 125.738ZM294.169 126.582V118.447H295.49V126.582H294.169ZM292.784 116.775V115.374H294.121V116.775H292.784ZM295.538 116.775V115.374H296.875V116.775H295.538Z" fill="#2B4F2E"/>
<path d="M161.323 177.308V166.386H162.517L167.34 173.694L167.993 174.744H168.041V166.386H169.314V177.308H168.089L163.121 169.761L162.66 168.965H162.596V177.308H161.323ZM172.298 177.308V169.172H173.635V177.308H172.298ZM172.25 167.023V165.845H173.683V167.023H172.25ZM176.43 177.308V169.172H177.369L177.576 170.366C177.873 169.931 178.26 169.597 178.738 169.363C179.216 169.13 179.73 169.013 180.282 169.013C180.845 169.013 181.344 169.119 181.779 169.332C182.214 169.544 182.554 169.868 182.798 170.303C183.052 170.727 183.18 171.263 183.18 171.911V177.308H181.843V172.15C181.843 171.407 181.673 170.876 181.333 170.558C180.993 170.239 180.521 170.08 179.916 170.08C179.513 170.08 179.147 170.175 178.818 170.366C178.489 170.558 178.229 170.823 178.038 171.162C177.847 171.491 177.751 171.863 177.751 172.277V177.308H176.43ZM185.898 177.308V165.845H187.219V170.271C187.506 169.857 187.882 169.544 188.349 169.332C188.827 169.119 189.305 169.013 189.782 169.013C190.334 169.013 190.822 169.119 191.247 169.332C191.682 169.544 192.027 169.868 192.282 170.303C192.536 170.727 192.664 171.263 192.664 171.911V177.308H191.327V172.15C191.327 171.407 191.151 170.876 190.801 170.558C190.462 170.239 189.989 170.08 189.384 170.08C188.981 170.08 188.615 170.175 188.286 170.366C187.957 170.558 187.697 170.823 187.506 171.162C187.315 171.491 187.219 171.863 187.219 172.277V177.308H185.898ZM199.273 177.308V166.386H204.065C204.638 166.386 205.131 166.498 205.545 166.721C205.97 166.933 206.293 167.23 206.516 167.612C206.75 167.994 206.867 168.44 206.867 168.95C206.867 169.491 206.766 169.942 206.564 170.303C206.373 170.664 206.129 170.95 205.832 171.162C205.545 171.364 205.253 171.507 204.956 171.592V171.688C205.137 171.709 205.343 171.767 205.577 171.863C205.821 171.958 206.06 172.102 206.293 172.293C206.527 172.484 206.723 172.739 206.882 173.057C207.042 173.375 207.121 173.773 207.121 174.251C207.121 174.824 206.983 175.344 206.707 175.811C206.442 176.268 206.076 176.634 205.609 176.91C205.142 177.175 204.611 177.308 204.017 177.308H199.273ZM200.658 176.177H203.778C204.149 176.177 204.478 176.092 204.765 175.923C205.052 175.742 205.28 175.503 205.45 175.206C205.63 174.909 205.72 174.58 205.72 174.219C205.72 173.848 205.63 173.519 205.45 173.232C205.28 172.946 205.046 172.723 204.749 172.563C204.463 172.394 204.139 172.309 203.778 172.309H200.658V176.177ZM200.658 171.178H203.619C203.98 171.178 204.298 171.093 204.574 170.924C204.85 170.743 205.068 170.51 205.227 170.223C205.386 169.926 205.466 169.602 205.466 169.252C205.466 168.721 205.328 168.302 205.052 167.994C204.786 167.676 204.378 167.517 203.826 167.517H200.658V171.178ZM209.626 177.308V169.172H210.963V177.308H209.626ZM209.578 167.023V165.845H211.011V167.023H209.578ZM213.758 177.308V169.172H214.697L214.904 170.366C215.201 169.931 215.589 169.597 216.066 169.363C216.544 169.13 217.059 169.013 217.611 169.013C218.173 169.013 218.672 169.119 219.107 169.332C219.542 169.544 219.882 169.868 220.126 170.303C220.381 170.727 220.508 171.263 220.508 171.911V177.308H219.171V172.15C219.171 171.407 219.001 170.876 218.661 170.558C218.322 170.239 217.849 170.08 217.244 170.08C216.841 170.08 216.475 170.175 216.146 170.366C215.817 170.558 215.557 170.823 215.366 171.162C215.175 171.491 215.079 171.863 215.079 172.277V177.308H213.758ZM223.226 177.308V165.845H224.547V170.271C224.834 169.857 225.211 169.544 225.678 169.332C226.155 169.119 226.633 169.013 227.11 169.013C227.662 169.013 228.151 169.119 228.575 169.332C229.01 169.544 229.355 169.868 229.61 170.303C229.865 170.727 229.992 171.263 229.992 171.911V177.308H228.655V172.15C228.655 171.407 228.48 170.876 228.129 170.558C227.79 170.239 227.317 170.08 226.712 170.08C226.309 170.08 225.943 170.175 225.614 170.366C225.285 170.558 225.025 170.823 224.834 171.162C224.643 171.491 224.547 171.863 224.547 172.277V177.308H223.226Z" fill="#2B4F2E"/>
<path d="M364.227 435.349V424.427H365.643V429.188H370.802V424.427H372.218V435.349H370.817V430.366H365.659V435.349H364.227ZM377.625 435.508C376.787 435.508 376.107 435.274 375.587 434.807C375.078 434.34 374.823 433.608 374.823 432.61V427.213H376.145V432.292C376.145 433.056 376.304 433.608 376.622 433.948C376.941 434.277 377.402 434.441 378.007 434.441C378.421 434.441 378.798 434.346 379.138 434.155C379.477 433.953 379.748 433.688 379.95 433.359C380.151 433.019 380.252 432.642 380.252 432.228V427.213H381.589V433.964C381.589 434.165 381.626 434.309 381.701 434.393C381.786 434.468 381.886 434.505 382.003 434.505C382.12 434.505 382.247 434.484 382.385 434.441C382.534 434.399 382.661 434.346 382.767 434.282V435.189C382.629 435.285 382.465 435.359 382.274 435.412C382.083 435.476 381.865 435.508 381.621 435.508C381.292 435.508 381.032 435.444 380.841 435.317C380.661 435.179 380.533 435.009 380.459 434.807C380.385 434.595 380.337 434.378 380.316 434.155C380.04 434.579 379.652 434.913 379.154 435.158C378.665 435.391 378.156 435.508 377.625 435.508ZM387.959 435.508C387.259 435.508 386.638 435.349 386.097 435.03C385.566 434.712 385.152 434.25 384.855 433.645C384.558 433.03 384.409 432.292 384.409 431.432V431.13C384.409 430.26 384.563 429.522 384.871 428.917C385.189 428.301 385.619 427.84 386.16 427.532C386.712 427.213 387.338 427.054 388.039 427.054H388.182C388.808 427.054 389.371 427.187 389.87 427.452C390.368 427.718 390.756 428.105 391.032 428.614C391.318 429.124 391.462 429.729 391.462 430.429V431.432H385.778C385.778 432.09 385.868 432.648 386.049 433.104C386.229 433.56 386.489 433.911 386.829 434.155C387.168 434.388 387.582 434.505 388.071 434.505C388.463 434.505 388.819 434.425 389.137 434.266C389.456 434.107 389.71 433.868 389.901 433.55C390.092 433.221 390.188 432.812 390.188 432.324H391.462C391.462 432.982 391.308 433.55 391 434.027C390.703 434.494 390.299 434.86 389.79 435.126C389.281 435.38 388.713 435.508 388.087 435.508H387.959ZM385.794 430.557H390.156C390.156 429.708 389.97 429.076 389.599 428.662C389.227 428.248 388.713 428.041 388.055 428.041C387.45 428.041 386.935 428.254 386.51 428.678C386.086 429.092 385.847 429.718 385.794 430.557ZM387.561 425.956L388.787 423.361H390.124V423.409L388.58 425.956H387.561Z" fill="#2B4F2E"/>
<path d="M331.144 505.924V495.003H332.561V499.763H337.719V495.003H339.136V505.924H337.735V500.941H332.577V505.924H331.144ZM345.083 506.083C344.393 506.083 343.778 505.919 343.236 505.59C342.695 505.26 342.271 504.794 341.963 504.189C341.655 503.573 341.501 502.835 341.501 501.976V501.721C341.501 500.861 341.655 500.129 341.963 499.524C342.281 498.908 342.711 498.441 343.252 498.123C343.804 497.794 344.42 497.629 345.099 497.629H345.258C345.948 497.629 346.564 497.794 347.105 498.123C347.646 498.441 348.071 498.908 348.379 499.524C348.686 500.129 348.84 500.861 348.84 501.721V501.976C348.84 502.835 348.681 503.573 348.363 504.189C348.055 504.804 347.63 505.276 347.089 505.605C346.548 505.924 345.932 506.083 345.242 506.083H345.083ZM345.163 505.08C345.598 505.08 345.985 504.979 346.325 504.778C346.675 504.565 346.951 504.252 347.153 503.838C347.354 503.414 347.455 502.894 347.455 502.278V501.418C347.455 500.792 347.354 500.272 347.153 499.858C346.951 499.444 346.675 499.137 346.325 498.935C345.985 498.723 345.598 498.617 345.163 498.617C344.738 498.617 344.351 498.723 344.001 498.935C343.661 499.137 343.39 499.444 343.189 499.858C342.987 500.272 342.886 500.792 342.886 501.418V502.278C342.886 502.894 342.987 503.414 343.189 503.838C343.39 504.252 343.661 504.565 344.001 504.778C344.351 504.979 344.738 505.08 345.163 505.08ZM351.307 505.924V497.789H352.645V505.924H351.307ZM351.26 495.639V494.461H352.692V495.639H351.26ZM358.009 505.924L362.339 495.003H363.883L368.214 505.924H366.701L365.682 503.377H360.429L359.426 505.924H358.009ZM360.843 502.262H365.268L363.087 496.658H363.024L360.843 502.262ZM369.743 505.924V497.789H370.682L370.889 498.983C371.186 498.548 371.573 498.213 372.051 497.98C372.529 497.746 373.043 497.629 373.595 497.629C374.158 497.629 374.657 497.736 375.092 497.948C375.527 498.16 375.867 498.484 376.111 498.919C376.365 499.344 376.493 499.88 376.493 500.527V505.924H375.155V500.766C375.155 500.023 374.986 499.492 374.646 499.174C374.306 498.855 373.834 498.696 373.229 498.696C372.826 498.696 372.46 498.792 372.131 498.983C371.802 499.174 371.542 499.439 371.351 499.779C371.16 500.108 371.064 500.479 371.064 500.893V505.924H369.743Z" fill="#2B4F2E"/>
<path d="M341.069 639.355V628.434H342.486V634.436L347.644 628.434H349.22L345.224 633.098L349.379 639.355H347.771L344.301 634.181L342.486 636.235V639.355H341.069ZM353.92 639.514C353.23 639.514 352.614 639.35 352.073 639.021C351.532 638.692 351.107 638.225 350.799 637.62C350.492 637.004 350.338 636.266 350.338 635.407V635.152C350.338 634.292 350.492 633.56 350.799 632.955C351.118 632.34 351.548 631.873 352.089 631.554C352.641 631.225 353.256 631.061 353.936 631.061H354.095C354.785 631.061 355.4 631.225 355.942 631.554C356.483 631.873 356.907 632.34 357.215 632.955C357.523 633.56 357.677 634.292 357.677 635.152V635.407C357.677 636.266 357.518 637.004 357.199 637.62C356.891 638.235 356.467 638.708 355.926 639.037C355.384 639.355 354.769 639.514 354.079 639.514H353.92ZM353.999 638.511C354.434 638.511 354.822 638.41 355.161 638.209C355.512 637.996 355.788 637.683 355.989 637.269C356.191 636.845 356.292 636.325 356.292 635.709V634.85C356.292 634.223 356.191 633.703 355.989 633.289C355.788 632.876 355.512 632.568 355.161 632.366C354.822 632.154 354.434 632.048 353.999 632.048C353.575 632.048 353.187 632.154 352.837 632.366C352.498 632.568 352.227 632.876 352.025 633.289C351.824 633.703 351.723 634.223 351.723 634.85V635.709C351.723 636.325 351.824 636.845 352.025 637.269C352.227 637.683 352.498 637.996 352.837 638.209C353.187 638.41 353.575 638.511 353.999 638.511ZM360.001 639.355V631.22H360.94L361.147 632.414C361.444 631.979 361.831 631.644 362.309 631.411C362.787 631.177 363.301 631.061 363.853 631.061C364.416 631.061 364.915 631.167 365.35 631.379C365.785 631.591 366.124 631.915 366.369 632.35C366.623 632.775 366.751 633.311 366.751 633.958V639.355H365.413V634.197C365.413 633.454 365.244 632.923 364.904 632.605C364.564 632.286 364.092 632.127 363.487 632.127C363.084 632.127 362.718 632.223 362.389 632.414C362.06 632.605 361.8 632.87 361.608 633.21C361.417 633.539 361.322 633.91 361.322 634.324V639.355H360.001ZM375.763 639.355V629.58H372.293V628.434H380.651V629.58H377.18V639.355H375.763ZM384.395 639.514C383.557 639.514 382.878 639.281 382.358 638.814C381.848 638.347 381.593 637.614 381.593 636.617V631.22H382.915V636.298C382.915 637.062 383.074 637.614 383.392 637.954C383.711 638.283 384.172 638.448 384.777 638.448C385.191 638.448 385.568 638.352 385.908 638.161C386.247 637.959 386.518 637.694 386.72 637.365C386.921 637.025 387.022 636.649 387.022 636.235V631.22H388.359V637.97C388.359 638.172 388.397 638.315 388.471 638.4C388.556 638.474 388.657 638.511 388.773 638.511C388.89 638.511 389.017 638.49 389.155 638.448C389.304 638.405 389.431 638.352 389.538 638.288V639.196C389.4 639.291 389.235 639.366 389.044 639.419C388.853 639.482 388.635 639.514 388.391 639.514C388.062 639.514 387.802 639.451 387.611 639.323C387.431 639.185 387.303 639.015 387.229 638.814C387.155 638.601 387.107 638.384 387.086 638.161C386.81 638.586 386.423 638.92 385.924 639.164C385.435 639.397 384.926 639.514 384.395 639.514ZM391.545 639.355V631.22H392.501L392.723 632.414C392.989 631.989 393.318 631.66 393.71 631.427C394.114 631.183 394.565 631.061 395.064 631.061C395.594 631.061 396.067 631.172 396.481 631.395C396.905 631.607 397.234 631.947 397.468 632.414C397.701 632.032 398.03 631.713 398.455 631.459C398.879 631.193 399.383 631.061 399.967 631.061C400.476 631.061 400.933 631.167 401.336 631.379C401.75 631.591 402.074 631.915 402.307 632.35C402.541 632.775 402.658 633.311 402.658 633.958V639.355H401.32V634.276C401.32 633.534 401.172 632.992 400.874 632.653C400.588 632.302 400.169 632.127 399.617 632.127C399.256 632.127 398.938 632.223 398.662 632.414C398.386 632.605 398.168 632.865 398.009 633.194C397.85 633.523 397.77 633.9 397.77 634.324V639.355H396.433V634.276C396.433 633.534 396.284 632.992 395.987 632.653C395.7 632.302 395.281 632.127 394.729 632.127C394.368 632.127 394.045 632.223 393.758 632.414C393.482 632.605 393.265 632.865 393.105 633.194C392.946 633.523 392.867 633.9 392.867 634.324V639.355H391.545Z" fill="#2B4F2E"/>
</svg>
