<svg width="392" height="804" viewBox="0 0 392 804" fill="none" xmlns="http://www.w3.org/2000/svg">
<path d="M145.645 792.33C144.555 792.33 139.968 797.44 137.404 800.47C137.118 800.808 137.089 801.307 137.449 801.567C139.74 803.22 146.628 803.22 149.28 803.22C151.561 803.22 163.349 794.376 169.288 789.698C169.51 789.523 169.64 789.266 169.671 788.985C170.611 780.539 182.229 771.958 188.266 768.522C188.441 768.422 188.633 768.383 188.834 768.399C196.923 769.068 212.517 767.807 212.517 757.483C212.517 747.234 221.367 747.312 226.052 748.687C226.234 748.741 226.424 748.746 226.606 748.694C230.248 747.638 235.63 744.429 229.962 739.333C224.147 734.106 227.539 731.348 229.962 730.622C235.534 729.17 246.098 725.104 243.772 720.458C240.865 714.65 243.772 713.924 243.772 712.472C243.772 711.572 243.19 709.452 242.703 707.867C242.513 707.25 242.934 706.608 243.576 706.55L249.954 705.971C250.186 705.95 250.407 705.843 250.578 705.682C255.383 701.166 259.294 705.201 260.932 708.27C261.116 708.614 261.466 708.844 261.856 708.83C268.689 708.585 278.022 704.542 282.116 702.403C282.237 702.339 282.338 702.256 282.424 702.15C285.399 698.471 292.094 691.418 296.106 691.418C300.109 691.418 311.003 684.396 316.202 680.711C316.371 680.591 316.567 680.533 316.775 680.513C320.992 680.107 331.408 672.051 336.496 667.729C336.7 667.556 336.962 667.475 337.229 667.489C343.252 667.798 347.109 663.801 348.702 661.09C348.983 660.612 349.575 660.394 350.1 660.573C353.413 661.707 358.616 661.585 358.616 653.667C358.616 645.844 362.134 644.461 364.43 644.786C364.87 644.848 365.332 644.705 365.582 644.338C369.986 637.859 376.931 625.753 372.427 624.628C368.486 623.644 368.44 612.169 369.107 603.976C369.192 602.935 370.921 602.653 371.784 603.242C372.61 603.805 373.58 603.874 374.607 602.848C376.846 600.613 373.43 595.51 371.227 592.971C371.064 592.785 370.972 592.545 370.977 592.298C371.099 585.597 374.397 582.507 376.061 581.795C379.211 580.827 384.783 577.874 381.876 573.809C378.242 568.727 372.427 560.015 373.881 552.029C374.991 545.927 372.654 537.13 371.175 532.98C371.052 532.636 371.121 532.259 371.349 531.975C374.232 528.387 377.996 521.076 372.427 517.182C367.361 513.641 367.812 509.107 368.973 506.558C369.222 506.01 369.054 505.297 368.681 504.825C365.619 500.943 363.195 485.105 362.281 476.801C362.26 476.618 362.193 476.453 362.083 476.305C359.618 472.991 355.141 464.556 355.709 455.474C356.436 443.858 345.533 438.05 343.352 438.776C341.639 439.346 334.176 430.159 330.467 425.245C330.336 425.072 330.27 424.866 330.263 424.65C330.141 420.733 327.962 410.483 323.727 411.188C321.289 411.594 320.839 409.188 321.036 406.793C321.115 405.844 319.931 405.066 319.048 405.421C315.55 406.832 315.247 403.202 316.458 399.573C317.548 396.307 314.043 393.212 311.803 391.84C311.534 391.675 311.202 391.664 310.912 391.789C305.941 393.953 296.833 396.817 296.833 392.313C296.833 386.505 288.838 377.067 284.476 377.067C280.115 377.067 262.671 361.096 261.944 355.288C261.217 349.48 245.226 333.508 237.957 330.604C232.295 328.342 228.011 307.538 226.448 296.617C226.377 296.122 225.959 295.761 225.466 295.674C219.756 294.663 206.81 284.683 200.475 279.326C200.27 279.153 200.151 278.908 200.125 278.641C199.175 268.637 189.934 259.398 186.35 255.102C183.746 251.98 184.057 247.46 184.673 244.987C184.787 244.529 185.242 244.273 185.699 244.155C190.349 242.95 192.419 226.665 192.887 218.159C192.89 218.103 192.898 218.048 192.911 217.993C196.557 202.077 205.254 194.12 208.156 194.845C211.063 195.571 221.966 184.681 226.327 181.777C230.689 178.873 232.869 173.066 232.869 165.806C232.869 160.27 238.151 156.493 241.164 155.104C241.434 154.979 241.641 154.754 241.731 154.47C243.743 148.137 248.201 138.103 251.041 145.478C253.617 152.168 257.525 151.372 259.73 149.757C260.176 149.431 260.173 148.793 259.791 148.394C257.111 145.598 253.463 141.122 256.129 141.122C258.909 141.122 267.668 138.025 272.243 136.273C272.612 136.132 272.858 135.776 272.883 135.381C273.806 120.774 281.633 120.069 285.93 120.069C289.331 120.069 294.851 113.629 297.371 110.167C297.495 109.996 297.673 109.865 297.876 109.807C302.49 108.472 301.302 113.545 299.95 116.695C299.822 116.992 299.828 117.338 300.023 117.597C303.007 121.569 308.463 111.197 308.463 106.275C308.463 101.193 279.388 101.919 276.481 103.371C274.218 104.501 262.594 97.4744 256.612 93.5276C256.312 93.3294 256.148 92.9774 256.16 92.6176C256.484 83.1003 247.32 84.4954 243.045 84.4954C239.645 84.4954 237.35 75.3028 236.562 70.355C236.523 70.1098 236.394 69.8886 236.207 69.7262C230.326 64.6448 230.446 56.2358 231.32 52.2337C231.377 51.9715 231.554 51.7453 231.784 51.6076C243.714 44.4784 240.85 40.1592 239.411 35.1285C238.297 31.2343 224.201 32.802 216.414 34.2171C215.866 34.3166 215.35 33.9478 215.18 33.4179C212.975 26.5451 202.089 27.9943 196.526 30.7726C190.711 33.6765 172.54 11.8969 166.725 8.993C162.165 6.7161 148.39 16.3409 141.684 21.7372C141.43 21.9416 141.3 22.2567 141.317 22.5822C141.709 30.0445 138.848 34.2924 137.147 35.683C137.003 35.8005 136.818 35.8612 136.633 35.8745C126.059 36.6326 128.149 39.5104 122.386 42.3883C116.571 45.2922 117.298 40.2104 107.849 38.0325C100.424 36.3212 100.806 46.1413 101.97 51.5363C102.011 51.7276 101.998 51.9224 101.928 52.1052C100.437 56.01 97.5136 62.3295 96.9459 58.36C96.4149 54.6476 86.1459 47.0204 79.7541 42.7754C79.0615 42.3154 78.1214 42.8713 78.0667 43.7009C77.889 46.3932 76.869 49.6481 73.6863 49.6481C68.5982 49.6481 68.5982 35.1284 64.9639 40.2103C61.3296 45.2922 48.2461 61.9899 47.5192 59.8119C46.7923 57.634 20.6253 36.5804 19.1716 41.6623C17.7178 46.7442 1 56.908 1 61.2639C1 64.6822 13.5892 77.6939 20.244 84.1276C20.4847 84.3604 20.8224 84.4398 21.1568 84.4226C25.3401 84.2072 28.5011 92.4978 30.0879 98.7417C30.3307 99.6969 31.8509 99.8896 32.5057 99.1531C36.3143 94.8692 42.4298 97.243 45.6789 99.4673C45.9267 99.637 46.076 99.9162 46.0855 100.216C46.3579 108.81 41.7289 116.445 37.8961 120.901C37.2208 121.687 37.8832 124.426 38.6417 125.131C44.46 130.541 50.6738 148.738 51.8804 146.93C53.3341 144.752 70.052 149.108 77.3206 154.916C84.5892 160.724 88.9504 154.19 98.3996 144.026C107.849 133.862 114.391 146.204 122.386 152.012C130.382 157.82 126.747 159.272 122.386 164.354C118.025 169.436 119.479 169.436 128.201 169.436C134.795 169.436 131.955 173.758 129.374 176.276C129.104 176.538 128.985 176.926 129.114 177.28C131.198 182.967 139.596 183.199 143.913 182.547C144.098 182.52 144.294 182.543 144.463 182.622C156.202 188.071 133.256 220.206 128.928 213.721C125.628 208.777 112.097 209.938 104.695 211.307C104.07 211.422 103.727 212.091 103.921 212.697C105.291 216.975 105.417 224.736 96.9456 228.966C87.7697 233.549 104.235 239.92 113.987 242.648C114.248 242.721 114.458 242.89 114.598 243.122C119.362 251.029 139.202 260.195 145.645 260.91C150.372 261.434 156.246 265.947 159.302 268.777C159.766 269.206 159.692 269.948 159.19 270.33C155.647 273.026 151.439 278.058 157.275 281.237C161.93 283.773 165.071 288.258 166.81 291.724C167.264 292.629 169.814 293.104 170.769 292.766C171.859 292.381 173.089 292.203 174.055 292.147C174.458 292.124 174.817 292.366 174.984 292.733C178.951 301.471 191.637 314.982 200.16 329.878C206.876 341.616 214.13 343.985 217.258 343.715C217.484 343.696 217.719 343.736 217.917 343.849C229.183 350.351 226.38 358.349 232.142 375.615C237.957 393.039 244.499 385.053 246.679 383.601C248.29 382.529 251.263 388.798 252.854 392.814C253.061 393.336 253.65 393.583 254.202 393.485C259.534 392.545 265.77 400.406 268.747 405.317C269.016 405.762 269.575 405.933 270.057 405.737C277.616 402.666 278.561 408.778 278.022 412.8C277.975 413.153 277.73 413.44 277.399 413.569C272.687 415.402 264.626 419.784 266.305 424.256C268.485 430.064 296.833 447.488 285.93 456.199C278.076 462.475 280.634 468.437 283.52 471.328C283.979 471.788 283.997 472.585 283.654 473.137C281.584 476.469 281.363 484.768 281.551 489.215C281.562 489.461 281.48 489.702 281.328 489.896C271.772 502.013 275.028 517.851 277.904 524.374C277.925 524.421 277.949 524.465 277.977 524.508C291.012 544.782 288.106 550.589 283.749 561.467C280.292 570.099 283.21 584.195 285.149 590.338C285.186 590.452 285.2 590.572 285.194 590.692C284.47 605.057 283.712 608.65 275.027 607.204C268.627 606.139 264.999 609.471 263.694 611.711C263.495 612.052 263.143 612.283 262.749 612.31C260.65 612.454 257.174 613.305 256.129 615.916C255.033 618.652 249.548 619.455 246.486 619.538C246.152 619.548 245.844 619.716 245.643 619.983C242.69 623.902 237.705 623.902 230.688 623.902C225.032 623.902 224.419 630.772 224.836 634.487C224.858 634.687 224.827 634.887 224.734 635.064C222.945 638.469 218.66 643.671 214.697 639.148C209.609 633.34 205.975 638.422 200.16 640.6C194.345 642.777 194.345 647.133 195.799 655.119C196.951 661.445 206.274 672.565 210.926 677.481C211.019 677.578 211.09 677.695 211.136 677.821C214.232 686.26 209.838 687.197 206.689 686.522C206.26 686.43 205.992 686.026 205.839 685.615C204.91 683.12 199.445 680.903 196.245 679.934C195.962 679.848 195.733 679.643 195.593 679.382C193.132 674.807 186.053 675.652 182.382 676.773C182.129 676.851 181.931 677.035 181.748 677.228C179.64 679.449 167.677 682.16 161.32 683.356C161.055 683.406 160.823 683.564 160.671 683.787C150.544 698.685 137.003 701.418 130.93 700.913C130.587 700.884 130.246 701.02 130.032 701.289C125.451 707.045 126.192 709.555 127.29 710.204L127.292 710.205C127.408 710.273 127.525 710.342 127.614 710.444C129.147 712.193 129.165 716.046 128.957 718.025C128.939 718.193 128.958 718.365 129.033 718.517C130.282 721.056 133.733 719.496 135.406 718.324C135.449 718.295 135.493 718.268 135.54 718.245C140.579 715.836 149.529 722.867 154.984 728.245C155.689 728.939 155.12 731.328 154.343 731.941C151.565 734.133 147.932 738.496 145.845 741.247C145.714 741.42 145.646 741.614 145.644 741.831C145.534 753.053 139.837 786.55 140.557 789.426C141.284 792.33 147.099 792.33 145.645 792.33Z" fill="white" fill-opacity="0.16" stroke="white" stroke-opacity="0.4" stroke-linecap="square" stroke-linejoin="round"/>
<path d="M153.296 784.68C152.205 784.68 147.619 789.789 145.054 792.819C144.768 793.158 144.74 793.657 145.099 793.916C147.391 795.57 154.278 795.57 156.93 795.57C159.211 795.57 170.999 786.726 176.938 782.047C177.16 781.873 177.291 781.616 177.322 781.335C178.262 772.889 189.879 764.307 195.916 760.872C196.092 760.772 196.283 760.732 196.484 760.749C204.573 761.418 220.167 760.156 220.167 749.832C220.167 739.583 229.017 739.661 233.702 741.037C233.884 741.09 234.074 741.096 234.257 741.043C237.898 739.988 243.28 736.778 237.612 731.683C231.797 726.456 235.189 723.697 237.612 722.971C243.185 721.519 253.748 717.454 251.423 712.807C248.515 706.999 251.423 706.273 251.423 704.821C251.423 703.921 250.841 701.801 250.353 700.216C250.164 699.6 250.584 698.958 251.227 698.899L257.604 698.32C257.837 698.299 258.058 698.192 258.228 698.032C263.033 693.515 266.944 697.55 268.582 700.62C268.766 700.964 269.117 701.194 269.506 701.18C276.34 700.934 285.672 696.891 289.767 694.752C289.888 694.689 289.988 694.605 290.074 694.499C293.049 690.821 299.745 683.768 303.757 683.768C307.76 683.768 318.653 676.746 323.852 673.061C324.022 672.94 324.218 672.882 324.425 672.862C328.643 672.457 339.058 664.401 344.147 660.078C344.351 659.905 344.613 659.825 344.88 659.839C350.903 660.147 354.76 656.151 356.352 653.439C356.633 652.961 357.226 652.743 357.75 652.923C361.063 654.056 366.267 653.935 366.267 646.017C366.267 638.193 369.784 636.81 372.08 637.135C372.52 637.197 372.983 637.055 373.232 636.687C377.637 630.209 384.582 618.102 380.077 616.977C376.136 615.993 376.09 604.518 376.758 596.325C376.843 595.284 378.571 595.003 379.434 595.591C380.26 596.155 381.231 596.224 382.258 595.198C384.496 592.962 381.081 587.859 378.877 585.321C378.715 585.134 378.622 584.895 378.627 584.647C378.75 577.946 382.047 574.857 383.712 574.144C386.861 573.176 392.434 570.224 389.526 566.158C385.892 561.076 380.077 552.365 381.531 544.379C382.642 538.276 380.304 529.48 378.825 525.329C378.703 524.986 378.771 524.608 379 524.324C381.882 520.736 385.646 513.425 380.077 509.532C375.012 505.99 375.462 501.457 376.623 498.907C376.873 498.36 376.705 497.647 376.332 497.174C373.269 493.292 370.845 477.455 369.931 469.15C369.911 468.967 369.843 468.802 369.733 468.655C367.268 465.341 362.791 456.905 363.359 447.823C364.086 436.207 353.183 430.399 351.003 431.125C349.289 431.696 341.826 422.508 338.117 417.595C337.987 417.422 337.92 417.216 337.914 416.999C337.791 413.082 335.613 402.833 331.377 403.538C328.939 403.944 328.489 401.537 328.687 399.142C328.765 398.194 327.582 397.415 326.699 397.771C323.2 399.181 322.897 395.552 324.109 391.922C325.199 388.657 321.693 385.561 319.453 384.189C319.184 384.024 318.852 384.013 318.563 384.139C313.591 386.302 304.483 389.166 304.483 384.662C304.483 378.854 296.488 369.417 292.127 369.417C287.766 369.417 270.321 353.445 269.594 347.637C268.867 341.829 252.876 325.858 245.608 322.954C239.945 320.691 235.661 299.888 234.098 288.966C234.027 288.471 233.609 288.11 233.117 288.023C227.406 287.013 214.46 277.032 208.125 271.676C207.92 271.502 207.801 271.258 207.776 270.991C206.825 260.987 197.585 251.747 194 247.451C191.396 244.33 191.708 239.81 192.324 237.336C192.437 236.879 192.893 236.623 193.349 236.505C198 235.3 200.07 219.014 200.538 210.509C200.541 210.452 200.549 210.397 200.561 210.342C204.207 194.426 212.904 186.47 215.806 187.194C218.714 187.92 229.617 177.031 233.978 174.127C238.339 171.223 240.52 165.415 240.52 158.155C240.52 152.62 245.802 148.843 248.815 147.453C249.085 147.329 249.291 147.103 249.381 146.82C251.393 140.486 255.851 130.453 258.691 137.828C261.267 144.518 265.175 143.722 267.381 142.107C267.827 141.78 267.823 141.142 267.441 140.743C264.762 137.947 261.113 133.472 263.779 133.472C266.559 133.472 275.318 130.375 279.894 128.622C280.263 128.481 280.509 128.125 280.534 127.731C281.457 113.123 289.283 112.418 293.581 112.418C296.982 112.418 302.501 105.979 305.021 102.516C305.146 102.345 305.323 102.215 305.526 102.156C310.14 100.821 308.952 105.894 307.6 109.044C307.473 109.342 307.479 109.687 307.673 109.946C310.658 113.918 316.113 103.547 316.113 98.6244C316.113 93.5425 287.039 94.2684 284.131 95.7204C281.868 96.8507 270.245 89.8238 264.263 85.877C263.962 85.6788 263.798 85.3268 263.811 84.967C264.134 75.4497 254.971 76.8448 250.696 76.8448C247.296 76.8448 245 67.6522 244.213 62.7044C244.174 62.4592 244.045 62.238 243.857 62.0756C237.976 56.9941 238.096 48.5852 238.971 44.5831C239.028 44.3209 239.204 44.0947 239.435 43.957C251.364 36.8278 248.5 32.5086 247.061 27.4779C245.947 23.5837 231.851 25.1514 224.064 26.5665C223.517 26.666 223 26.2972 222.83 25.7673C220.625 18.8945 209.74 20.3437 204.176 23.122C198.362 26.0259 180.19 4.24633 174.375 1.34239C169.816 -0.934507 156.04 8.6903 149.335 14.0866C149.081 14.291 148.95 14.6061 148.967 14.9316C149.359 22.3939 146.499 26.6418 144.797 28.0324C144.654 28.1499 144.468 28.2106 144.283 28.2239C133.709 28.982 135.799 31.8598 130.036 34.7377C124.222 37.6416 124.948 32.5598 115.499 30.3819C108.075 28.6706 108.456 38.4907 109.62 43.8857C109.661 44.077 109.648 44.2718 109.579 44.4546C108.088 48.3594 105.164 54.6789 104.596 50.7094C104.065 46.997 93.7963 39.3698 87.4045 35.1248C86.7119 34.6648 85.7718 35.2207 85.7171 36.0503C85.5394 38.7426 84.5194 41.9975 81.3367 41.9975C76.2486 41.9975 76.2486 27.4778 72.6143 32.5597C68.98 37.6416 55.8965 54.3393 55.1696 52.1613C54.4427 49.9834 28.2757 28.9298 26.822 34.0117C25.3682 39.0936 8.65039 49.2574 8.65039 53.6133C8.65039 57.0316 21.2396 70.0433 27.8944 76.477C28.1351 76.7098 28.4728 76.7892 28.8072 76.772C32.9905 76.5565 36.1515 84.8472 37.7383 91.0911C37.9811 92.0463 39.5012 92.239 40.1561 91.5025C43.9647 87.2186 50.0802 89.5924 53.3293 91.8167C53.5771 91.9864 53.7264 92.2656 53.7359 92.5657C54.0082 101.159 49.3793 108.794 45.5465 113.251C44.8711 114.036 45.5336 116.775 46.2921 117.481C52.1104 122.89 58.3242 141.087 59.5308 139.279C60.9845 137.102 77.7023 141.457 84.971 147.265C92.2396 153.073 96.6008 146.539 106.05 136.375C115.499 126.212 122.041 138.553 130.036 144.361C138.032 150.169 134.398 151.621 130.036 156.703C125.675 161.785 127.129 161.785 135.851 161.785C142.446 161.785 139.606 166.107 137.024 168.625C136.755 168.888 136.635 169.276 136.764 169.629C138.848 175.317 147.246 175.548 151.564 174.897C151.748 174.869 151.944 174.893 152.113 174.971C163.853 180.42 140.907 212.555 136.578 206.07C133.278 201.126 119.747 202.287 112.346 203.656C111.72 203.772 111.377 204.441 111.571 205.046C112.942 209.324 113.067 217.085 104.596 221.316C95.4201 225.898 111.885 232.27 121.637 234.997C121.898 235.071 122.109 235.239 122.249 235.472C127.013 243.378 146.853 252.544 153.296 253.259C158.023 253.784 163.896 258.296 166.953 261.126C167.416 261.555 167.342 262.297 166.84 262.679C163.298 265.375 159.09 270.407 164.926 273.587C169.581 276.123 172.721 280.607 174.46 284.073C174.914 284.978 177.465 285.453 178.419 285.116C179.509 284.73 180.739 284.552 181.705 284.496C182.108 284.473 182.468 284.715 182.635 285.083C186.602 293.821 199.288 307.331 207.811 322.228C214.526 333.966 221.78 336.335 224.908 336.065C225.135 336.045 225.37 336.085 225.567 336.199C236.833 342.7 234.03 350.698 239.792 367.965C245.607 385.388 252.149 377.402 254.33 375.951C255.94 374.878 258.913 381.148 260.504 385.164C260.711 385.685 261.301 385.932 261.853 385.835C267.184 384.894 273.421 392.756 276.397 397.667C276.667 398.111 277.225 398.283 277.707 398.087C285.267 395.015 286.212 401.127 285.673 405.149C285.625 405.502 285.381 405.79 285.049 405.919C280.337 407.752 272.276 412.134 273.955 416.605C276.136 422.413 304.483 439.837 293.58 448.549C285.726 454.824 288.284 460.786 291.171 463.678C291.629 464.137 291.647 464.935 291.305 465.486C289.235 468.819 289.013 477.117 289.202 481.564C289.212 481.81 289.131 482.052 288.978 482.245C279.422 494.362 282.678 510.201 285.555 516.723C285.575 516.77 285.6 516.815 285.627 516.858C298.662 537.132 295.756 542.939 291.4 553.817C287.943 562.448 290.86 576.544 292.8 582.687C292.836 582.802 292.85 582.921 292.844 583.041C292.12 597.406 291.362 600.999 282.677 599.554C276.277 598.488 272.649 601.82 271.344 604.06C271.145 604.401 270.794 604.632 270.399 604.659C268.3 604.804 264.825 605.654 263.779 608.266C262.683 611.002 257.198 611.804 254.137 611.888C253.803 611.897 253.494 612.065 253.293 612.332C250.341 616.251 245.356 616.251 238.339 616.251C232.682 616.251 232.07 623.121 232.486 626.837C232.509 627.036 232.477 627.236 232.384 627.414C230.595 630.818 226.311 636.021 222.348 631.497C217.26 625.689 213.625 630.771 207.811 632.949C201.996 635.127 201.996 639.483 203.449 647.469C204.601 653.795 213.925 664.914 218.577 669.83C218.669 669.928 218.74 670.044 218.786 670.17C221.883 678.61 217.489 679.546 214.34 678.872C213.91 678.78 213.643 678.376 213.489 677.964C212.561 675.469 207.095 673.252 203.895 672.283C203.612 672.198 203.384 671.992 203.243 671.732C200.782 667.156 193.703 668.002 190.033 669.123C189.779 669.2 189.581 669.385 189.399 669.577C187.291 671.798 175.327 674.509 168.971 675.705C168.705 675.755 168.473 675.913 168.321 676.136C158.195 691.034 144.654 693.767 138.58 693.262C138.238 693.234 137.896 693.369 137.682 693.638C133.101 699.394 133.843 701.904 134.941 702.553L134.943 702.554C135.058 702.623 135.176 702.692 135.264 702.793C136.797 704.543 136.815 708.396 136.607 710.374C136.59 710.543 136.608 710.714 136.683 710.866C137.933 713.405 141.384 711.845 143.057 710.674C143.099 710.644 143.143 710.617 143.19 710.595C148.23 708.185 157.18 715.217 162.635 720.594C163.34 721.289 162.771 723.677 161.994 724.29C159.216 726.483 155.582 730.846 153.495 733.597C153.364 733.769 153.296 733.964 153.294 734.18C153.185 745.402 147.488 778.9 148.208 781.776C148.935 784.68 154.749 784.68 153.296 784.68Z" fill="white" fill-opacity="0.16" stroke="white" stroke-width="2" stroke-linecap="square" stroke-linejoin="round"/>
</svg>
